<svg xmlns="http://www.w3.org/2000/svg" width="56" height="51" viewBox="0 0 56 51">
  <g id="Group_18775" data-name="Group 18775" transform="translate(-286.001 -515)">
    <path id="Path_19801" data-name="Path 19801" d="M29.893,386.175l27.8,16.05,19.131-11.047-27.8-16.049Z" transform="translate(256.107 163.774)" fill="#e8e8e8"/>
    <path id="Path_19802" data-name="Path 19802" d="M82.823,345.055l-3.89-2.244-8.879-5.126L48.124,350.347l8.895,5.137,3.874,2.239,9.641,5.567,21.919-12.661.011-.006Z" transform="translate(249.536 177.315)" fill="#d8d6d6"/>
    <path id="Path_19803" data-name="Path 19803" d="M70.39,338.217,49.054,350.539l11.921,6.882,4.464,2.573,5.433,3.048,4.463-2.485,16.873-9.744Z" transform="translate(249.2 177.123)" fill="#d8d6d6"/>
    <path id="Path_19804" data-name="Path 19804" d="M70.534,370.457v21.807l-9.62-5.511-3.895-2.229-8.895-5.1V357.519l8.895,5.138,3.895,2.243Z" transform="translate(249.536 170.143)" fill="#bcbbbb"/>
    <path id="Path_19805" data-name="Path 19805" d="M83.23,370.62v21.8l21.919-12.578V357.96Z" transform="translate(236.842 169.983)" fill="#ebebeb"/>
    <path id="Path_19806" data-name="Path 19806" d="M101.832,374.825l-.117.069v-2.038l.117-.067Z" transform="translate(230.158 164.621)" fill="#4f4b4b"/>
    <path id="Path_19807" data-name="Path 19807" d="M102.014,372.928l-.086.142-.392-.261-.393.716-.087-.043.479-.872Z" transform="translate(230.396 164.686)" fill="#4f4b4b"/>
    <path id="Path_19808" data-name="Path 19808" d="M103.666,373.766l-.117.068V371.8l.117-.067Z" transform="translate(229.495 165.004)" fill="#4f4b4b"/>
    <path id="Path_19809" data-name="Path 19809" d="M103.849,371.869l-.086.142-.393-.261-.394.715-.086-.042.479-.872Z" transform="translate(229.732 165.068)" fill="#4f4b4b"/>
    <path id="Path_19810" data-name="Path 19810" d="M103.165,374.539l-2.186,1.262c-.033.019-.059,0-.059-.035a.124.124,0,0,1,.059-.1l2.186-1.262c.032-.019.058,0,.058.034A.128.128,0,0,1,103.165,374.539Z" transform="translate(230.445 164.04)" fill="#4f4b4b"/>
    <path id="Path_19811" data-name="Path 19811" d="M102.957,373.511l-2.149,1.242c-.227.13-.41.025-.41-.237v-2.481a.906.906,0,0,1,.41-.711l2.149-1.241c.226-.13.41-.024.41.237V372.8A.9.9,0,0,1,102.957,373.511Zm-2.149-2.051a.65.65,0,0,0-.293.506v2.481c0,.187.132.262.294.17l2.149-1.241a.647.647,0,0,0,.292-.507v-2.481c0-.186-.132-.262-.293-.17Z" transform="translate(230.634 165.62)" fill="#4f4b4b"/>
    <path id="Path_19812" data-name="Path 19812" d="M107.724,371.928c-.033.019-.059,0-.059-.034v-1.776a.128.128,0,0,1,.059-.1c.032-.02.059,0,.059.033v1.777A.13.13,0,0,1,107.724,371.928Z" transform="translate(228.006 165.627)" fill="#4f4b4b"/>
    <path id="Path_19813" data-name="Path 19813" d="M107.991,370.594l-2.148,1.242c-.227.13-.411.024-.411-.237v-2.482a.91.91,0,0,1,.411-.711l2.148-1.242c.226-.13.41-.024.41.238v2.482A.906.906,0,0,1,107.991,370.594Zm-2.149-2.052a.651.651,0,0,0-.294.507v2.482c0,.186.132.262.294.169l2.148-1.24a.648.648,0,0,0,.292-.507V367.47c0-.187-.131-.262-.292-.169Z" transform="translate(228.813 166.675)" fill="#4f4b4b"/>
    <path id="Path_19814" data-name="Path 19814" d="M108.142,370.038c-.084-.327-.449-.4-.887-.147a1.934,1.934,0,0,0-.887,1.173Z" transform="translate(228.475 165.724)" fill="#4f4b4b"/>
    <path id="Path_19815" data-name="Path 19815" d="M107.24,369.578c-.033.02-.058,0-.058-.034v-.433a.122.122,0,0,1,.058-.1c.033-.02.058,0,.058.032v.433A.128.128,0,0,1,107.24,369.578Z" transform="translate(228.18 165.991)" fill="#4f4b4b"/>
    <path id="Path_19816" data-name="Path 19816" d="M107.724,369.3c-.033.02-.059,0-.059-.034v-.433a.133.133,0,0,1,.059-.1c.032-.018.058,0,.058.034v.434A.127.127,0,0,1,107.724,369.3Z" transform="translate(228.006 166.092)" fill="#4f4b4b"/>
    <path id="Path_19817" data-name="Path 19817" d="M108.208,369.019c-.032.018-.058,0-.058-.034v-.434a.132.132,0,0,1,.058-.1.036.036,0,0,1,.059.034v.435A.131.131,0,0,1,108.208,369.019Z" transform="translate(227.831 166.193)" fill="#4f4b4b"/>
    <path id="Path_19818" data-name="Path 19818" d="M112.983,367.723l-2.15,1.241c-.226.13-.41.024-.41-.237v-2.482a.909.909,0,0,1,.41-.71l2.149-1.24c.226-.131.41-.024.41.236v2.483A.911.911,0,0,1,112.983,367.723Zm-2.15-2.052a.647.647,0,0,0-.292.508v2.481c0,.187.131.262.292.17l2.149-1.241a.646.646,0,0,0,.292-.508V364.6c0-.186-.132-.263-.293-.17Z" transform="translate(227.009 167.713)" fill="#4f4b4b"/>
    <path id="Path_19819" data-name="Path 19819" d="M112.715,368.521c-.032.019-.059,0-.059-.033v-1.777a.135.135,0,0,1,.059-.1.036.036,0,0,1,.059.034v1.777A.131.131,0,0,1,112.715,368.521Z" transform="translate(226.2 166.859)" fill="#4f4b4b"/>
    <path id="Path_19820" data-name="Path 19820" d="M112.83,369.287l-.533.308c-.032.018-.059,0-.059-.033a.128.128,0,0,1,.059-.1l.533-.308c.033-.018.058,0,.058.034A.128.128,0,0,1,112.83,369.287Z" transform="translate(226.352 165.939)" fill="#4f4b4b"/>
    <path id="Path_19821" data-name="Path 19821" d="M112.994,365.846v.831a.777.777,0,0,1-.352.608l-.43.248c-.195.113-.352.021-.352-.2V366.5l.213-.123v.889c0,.038.026.052.059.034a.132.132,0,0,0,.059-.1v-.889Z" transform="translate(226.488 167.132)" fill="#4f4b4b"/>
    <path id="Path_19822" data-name="Path 19822" d="M65.952,362.01v26.367l-3.895-2.229V364.259Z" transform="translate(244.485 168.519)" fill="#a5a5a5"/>
    <path id="Path_19823" data-name="Path 19823" d="M87.862,347.959l-21.91,12.652-.021.016-3.874-2.239v-.021l3.895-2.249,18.019-10.4Z" transform="translate(244.491 174.411)" fill="#a5a5a5"/>
  </g>
</svg>
