<svg xmlns="http://www.w3.org/2000/svg" width="64" height="64" viewBox="0 0 64 64"><circle cx="32" cy="32" r="32" fill="#eaf0ff"/><path d="M176.943,161.622l-15.874-15.874L130.245,181.2l8.721,8.721a31.405,31.405,0,0,0,37.978-28.3Z" transform="translate(-113.283 -127.2)" fill="#bccdf8"/><g transform="translate(16.458 9.122)"><path d="M152.642,76.992l8.426,8.426v35.45H130.245V76.992Z" transform="translate(-130.245 -76.992)" fill="#a0bff9"/></g><g transform="translate(32.048 9.122)"><path d="M271.517,85.418l-8.426-8.426H256.12v43.877h15.4Z" transform="translate(-256.12 -76.992)" fill="#a0bff9"/></g><g transform="translate(39.063 9.122)"><path d="M313,85.418V76.992l8.426,8.426Z" transform="translate(-313 -76.992)" fill="#284cb2"/></g><path d="M150.909,156.078l-4.34-4.34,2.6-2.6,1.74,1.74L155,146.785a6.1,6.1,0,1,0,2.305,2.895Z" transform="translate(-127.3 -127.854)" fill="#fff"/><path d="M150.909,300.078l-4.34-4.34,2.6-2.6,1.74,1.74L155,290.785a6.1,6.1,0,1,0,2.305,2.895Z" transform="translate(-127.3 -253.859)" fill="#fff"/><g transform="translate(33.758 23.342)"><path d="M270.311,189.865h10.463v3.677H270.311Z" transform="translate(-270.311 -189.865)" fill="#fff"/></g><g transform="translate(33.758 41.78)"><path d="M270.311,337.82h10.463V341.5H270.311Z" transform="translate(-270.311 -337.82)" fill="#fff"/></g></svg>