<svg id="Layer_1" data-name="Layer 1" xmlns="http://www.w3.org/2000/svg" viewBox="0 0 588.07 129.29"><title>logos</title><path d="M187.74,24.76h27v8.29H197.19V44.63h16.28v8.28H197.19v20h-9.45Z" style="fill:#0f57fb"/><path d="M224.31,24.76h16.4a19.78,19.78,0,0,1,8.56,1.73,12.86,12.86,0,0,1,5.63,5,14.76,14.76,0,0,1,2,7.86,14.78,14.78,0,0,1-2.85,9.19,14.29,14.29,0,0,1-7.92,5.16l15.75,19.22h-12L236,54.75h-2.24V72.89h-9.46Zm13.48,22.11c2.94,0,5.21-.63,6.81-1.91A6.45,6.45,0,0,0,247,39.58a6.45,6.45,0,0,0-2.39-5.36c-1.6-1.27-3.87-1.9-6.83-1.9h-4V46.87Z" style="fill:#0f57fb"/><path d="M268.33,24.76H295.1v8.29H277.78V44.63H294.4v8.28H277.78v11.7H295.1v8.28H268.33Z" style="fill:#0f57fb"/><path d="M306.65,24.76h9.46V72.89h-9.46Z" style="fill:#0f57fb"/><path d="M340.11,71.93a23.17,23.17,0,0,1-7.51-5.29,24.6,24.6,0,0,1-5-8,28,28,0,0,1-.1-19.44,24.26,24.26,0,0,1,4.87-8A22.68,22.68,0,0,1,340,25.86a24.89,24.89,0,0,1,10.07-2,30.09,30.09,0,0,1,9.46,1.56A25.47,25.47,0,0,1,367.88,30l-4.43,7.32a18.61,18.61,0,0,0-6.16-3.65,20.62,20.62,0,0,0-7.09-1.31,13.65,13.65,0,0,0-7.73,2.11,13.32,13.32,0,0,0-4.82,5.75A19.71,19.71,0,0,0,336,48.42a19.63,19.63,0,0,0,1.84,8.75,14.49,14.49,0,0,0,5,5.86,12.32,12.32,0,0,0,7,2.1,13.27,13.27,0,0,0,5.91-1.35,11.81,11.81,0,0,0,4.45-3.71,8.85,8.85,0,0,0,1.69-5.32V54H349.24V46.7H371.5V54a17.61,17.61,0,0,1-1.84,8,19.92,19.92,0,0,1-5,6.27,23,23,0,0,1-7.1,4.08,23.88,23.88,0,0,1-8.22,1.45A22.68,22.68,0,0,1,340.11,71.93Z" style="fill:#0f57fb"/><path d="M381,24.76h9.45V44.63h18V24.76h9.42V72.89h-9.42v-20h-18v20H381Z" style="fill:#0f57fb"/><path d="M435,33.11H422.83V24.76h33.84v8.35H444.44V72.89H435Z" style="fill:#0f57fb"/><path d="M476.56,71.93a24.4,24.4,0,0,1-13.45-13.24,26.12,26.12,0,0,1,0-19.66,24.23,24.23,0,0,1,5.39-8,24.57,24.57,0,0,1,8.08-5.29,26.11,26.11,0,0,1,10.05-1.9,26.39,26.39,0,0,1,8.48,1.33,23.81,23.81,0,0,1,7,3.63l-2.1,3.7a18.57,18.57,0,0,0-5.95-3.18,22.81,22.81,0,0,0-7.17-1.11,21.73,21.73,0,0,0-8.39,1.58,19.84,19.84,0,0,0-10.94,10.94,22,22,0,0,0,0,16.14,20,20,0,0,0,4.33,6.57,20.27,20.27,0,0,0,6.61,4.39,21.73,21.73,0,0,0,8.39,1.57,22.81,22.81,0,0,0,7.17-1.11A18.57,18.57,0,0,0,500,65.16l2.1,3.71a24.46,24.46,0,0,1-6.95,3.61,27.63,27.63,0,0,1-18.6-.55Z" style="fill:#0f57fb"/><path d="M526.79,24.76h4.11l18.93,48.13h-4.78l-5.87-15.34H518.5l-5.92,15.34h-4.75Zm10.88,28.88-8.84-23-8.84,23Z" style="fill:#0f57fb"/><path d="M558.81,24.76H569q7,0,10.93,3.13t3.89,9q0,8-6.94,10.85a13.16,13.16,0,0,1,8.28,3.91A11.79,11.79,0,0,1,588.07,60q0,6.06-4,9.48c-2.68,2.27-6.36,3.41-11.07,3.41H558.81Zm9.4,21.65c3.65,0,6.46-.79,8.42-2.35a8.06,8.06,0,0,0,3-6.7,8.09,8.09,0,0,0-3-6.72c-2-1.56-4.77-2.35-8.42-2.35h-5V46.41Zm3.61,22.87q5.64,0,8.68-2.46a8.39,8.39,0,0,0,3-6.94,8.6,8.6,0,0,0-3.08-7q-3.08-2.52-8.65-2.52h-8.57v19Z" style="fill:#0f57fb"/><path d="M194,91.13h-6.22V88.76h15.1v2.37H196.6v19.11H194Z" style="fill:#0f57fb"/><path d="M207.16,109.73a7,7,0,0,1-2.63-2.52,6.83,6.83,0,0,1-1-3.6,7,7,0,0,1,2.07-5,7,7,0,0,1,5-2.08,7.49,7.49,0,0,1,3.65.86,6.15,6.15,0,0,1,2.45,2.4,7.09,7.09,0,0,1,.88,3.56,2.51,2.51,0,0,1-.07.55H206.12a4.74,4.74,0,0,0,.63,2.46,4.44,4.44,0,0,0,1.74,1.67,5.21,5.21,0,0,0,2.56.61,5,5,0,0,0,4.32-2.23l1.85,1a6.47,6.47,0,0,1-2.61,2.44,7.85,7.85,0,0,1-3.69.87A7.56,7.56,0,0,1,207.16,109.73ZM215.1,102a4,4,0,0,0-1.5-2.49,4.56,4.56,0,0,0-2.9-1,4.7,4.7,0,0,0-3,.94,3.81,3.81,0,0,0-1.47,2.51Z" style="fill:#0f57fb"/><path d="M224.38,109.72a7.2,7.2,0,0,1-2.64-2.53,7.17,7.17,0,0,1,0-7.2,7.22,7.22,0,0,1,2.6-2.55,7.35,7.35,0,0,1,3.72-1,7.93,7.93,0,0,1,2.5.39,6.18,6.18,0,0,1,2,1l-.95,1.71a5.07,5.07,0,0,0-3.21-1,5.13,5.13,0,0,0-2.64.67,4.75,4.75,0,0,0-1.76,1.8,5.36,5.36,0,0,0,0,5,4.75,4.75,0,0,0,1.78,1.78,5.13,5.13,0,0,0,2.62.66,4.93,4.93,0,0,0,3.18-1l1,1.71a6.83,6.83,0,0,1-2,1,7.82,7.82,0,0,1-2.49.39A7.36,7.36,0,0,1,224.38,109.72Z" style="fill:#0f57fb"/><path d="M236.41,87.84h2.52V98.63a4.83,4.83,0,0,1,1.76-1.53,5.78,5.78,0,0,1,2.72-.61,4.87,4.87,0,0,1,3.68,1.43,5.48,5.48,0,0,1,1.37,4v8.36h-2.52v-7.85a4.18,4.18,0,0,0-.9-2.88,3.19,3.19,0,0,0-2.53-1,3.52,3.52,0,0,0-2.63,1,3.25,3.25,0,0,0-.95,2.31v8.45h-2.52Z" style="fill:#0f57fb"/><path d="M253.55,96.91h2.52v1.72a4.83,4.83,0,0,1,1.76-1.53,5.78,5.78,0,0,1,2.72-.61,4.87,4.87,0,0,1,3.69,1.43,5.52,5.52,0,0,1,1.36,4v8.36h-2.52v-7.85a4.18,4.18,0,0,0-.9-2.88,3.21,3.21,0,0,0-2.53-1,3.52,3.52,0,0,0-2.63,1,3.21,3.21,0,0,0-.95,2.3v8.45h-2.52Z" style="fill:#0f57fb"/><path d="M273.32,109.76a7,7,0,0,1,0-12.37,8.56,8.56,0,0,1,7.64,0,7,7,0,0,1,0,12.37,8.64,8.64,0,0,1-7.64,0Zm6.33-1.93a4.52,4.52,0,0,0,1.74-1.73,5.32,5.32,0,0,0,0-5.06,4.49,4.49,0,0,0-1.74-1.72,5,5,0,0,0-2.51-.63,4.94,4.94,0,0,0-2.5.63,4.59,4.59,0,0,0-1.75,1.72,5.32,5.32,0,0,0,0,5.06,4.61,4.61,0,0,0,1.75,1.73,4.94,4.94,0,0,0,2.5.63A5,5,0,0,0,279.65,107.83Z" style="fill:#0f57fb"/><path d="M288.88,87.85h2.52v22.39h-2.52Z" style="fill:#0f57fb"/><path d="M299.36,109.76a7,7,0,0,1-2.69-2.5,7.31,7.31,0,0,1,0-7.38,6.94,6.94,0,0,1,2.69-2.49,8.56,8.56,0,0,1,7.64,0,7,7,0,0,1,2.7,2.49,7.37,7.37,0,0,1,0,7.38,7.06,7.06,0,0,1-2.7,2.5,8.64,8.64,0,0,1-7.64,0Zm6.33-1.93a4.61,4.61,0,0,0,1.75-1.73,5.32,5.32,0,0,0,0-5.06,4.59,4.59,0,0,0-1.75-1.72,5.3,5.3,0,0,0-5,0,4.49,4.49,0,0,0-1.74,1.72,5.32,5.32,0,0,0,0,5.06,4.52,4.52,0,0,0,1.74,1.73,5.3,5.3,0,0,0,5,0Z" style="fill:#0f57fb"/><path d="M314.05,113.52l2.09-1a4.5,4.5,0,0,0,1.92,2,5.93,5.93,0,0,0,2.95.74,5.52,5.52,0,0,0,2.51-.56,4.31,4.31,0,0,0,1.73-1.6,4.75,4.75,0,0,0,.63-2.49v-2.85a6.06,6.06,0,0,1-5.27,2.91,6.31,6.31,0,0,1-3.35-.91,6.61,6.61,0,0,1-2.38-2.51,8,8,0,0,1,0-7.29,6.54,6.54,0,0,1,2.37-2.52,6.38,6.38,0,0,1,3.42-.93,6.19,6.19,0,0,1,3,.76,5.59,5.59,0,0,1,2.17,2.09V96.91h2.53V110.6a6.52,6.52,0,0,1-1.93,5,7.71,7.71,0,0,1-5.47,1.8C317.52,117.4,315.2,116.1,314.05,113.52Zm9.66-5.67a4.41,4.41,0,0,0,1.66-1.74,5.21,5.21,0,0,0,.6-2.52,5.28,5.28,0,0,0-.6-2.55,4.56,4.56,0,0,0-1.66-1.74,4.92,4.92,0,0,0-4.82,0,4.48,4.48,0,0,0-1.66,1.74,5.7,5.7,0,0,0,0,5.07,4.41,4.41,0,0,0,1.66,1.74,4.57,4.57,0,0,0,2.4.63A4.63,4.63,0,0,0,323.71,107.85Z" style="fill:#0f57fb"/><path d="M337.92,109.51l-6.34-12.6h2.88L339.38,107l4.41-10.09h2.88L337.21,117h-2.87Z" style="fill:#0f57fb"/><path d="M359.43,110a5.61,5.61,0,0,1-2.35-2,5.46,5.46,0,0,1-.87-3.11q0-4.2,5.15-6.54a12.92,12.92,0,0,1-2.12-2.72,4.8,4.8,0,0,1-.61-2.33,4.55,4.55,0,0,1,.74-2.59,5,5,0,0,1,2-1.71,6.33,6.33,0,0,1,2.78-.6,5.8,5.8,0,0,1,2.93.69,4.78,4.78,0,0,1,2.5,4.27,4.31,4.31,0,0,1-1.13,3,11.16,11.16,0,0,1-3.32,2.35l5.13,5.54c.26-.26.57-.6.94-1s.71-.85,1-1.27.58-.72.73-.92l1.65,1.47c-.39.56-.83,1.15-1.33,1.79s-.95,1.19-1.38,1.65l4,4.36h-3.31L370,107.35a12.06,12.06,0,0,1-3.4,2.45,8.86,8.86,0,0,1-3.81.85A7.75,7.75,0,0,1,359.43,110Zm8.83-4.39-5.49-5.81a6.91,6.91,0,0,0-2.72,2,4.38,4.38,0,0,0-.95,2.73,3.41,3.41,0,0,0,2,3.24,4.66,4.66,0,0,0,2,.42A7.17,7.17,0,0,0,368.26,105.57Zm-1.93-10.11a2.86,2.86,0,0,0,.92-2.18,2.81,2.81,0,0,0-.87-2.16,3,3,0,0,0-2.15-.82,2.91,2.91,0,0,0-2.13.82,2.78,2.78,0,0,0-.84,2.09,3.4,3.4,0,0,0,.53,1.78,12.42,12.42,0,0,0,1.92,2.18A11.41,11.41,0,0,0,366.33,95.46Z" style="fill:#0f57fb"/><path d="M390.46,91.13h-6.23V88.76h15.1v2.37H393.1v19.11h-2.64Z" style="fill:#0f57fb"/><path d="M401.47,96.91H404v2a4.36,4.36,0,0,1,4-2.37,5.57,5.57,0,0,1,1.27.15,4.59,4.59,0,0,1,1.12.4l-1,2.13a4.49,4.49,0,0,0-.94-.35,4.66,4.66,0,0,0-1-.13,3.26,3.26,0,0,0-1.66.45,3.79,3.79,0,0,0-1.28,1.17,2.63,2.63,0,0,0-.49,1.53v8.4h-2.52Z" style="fill:#0f57fb"/><path d="M415.6,109.74a6.66,6.66,0,0,1-2.39-2.52,8.13,8.13,0,0,1,0-7.28,6.51,6.51,0,0,1,2.36-2.52,6.69,6.69,0,0,1,6.5-.17,5.39,5.39,0,0,1,2.17,2.09V96.91h2.52v13.33h-2.52v-2.5a6.31,6.31,0,0,1-2.24,2.15,6.08,6.08,0,0,1-3,.76A6.32,6.32,0,0,1,415.6,109.74Zm6.45-1.89a4.46,4.46,0,0,0,1.65-1.74,5.68,5.68,0,0,0,0-5.08,4.5,4.5,0,0,0-1.65-1.73,4.92,4.92,0,0,0-4.82,0,4.53,4.53,0,0,0-1.66,1.73,5.68,5.68,0,0,0,0,5.08,4.48,4.48,0,0,0,1.66,1.74,4.92,4.92,0,0,0,4.82,0Z" style="fill:#0f57fb"/><path d="M432.08,96.91h2.53v1.72a4.75,4.75,0,0,1,1.76-1.53,5.75,5.75,0,0,1,2.72-.61,4.87,4.87,0,0,1,3.68,1.43,5.53,5.53,0,0,1,1.37,4v8.36h-2.53v-7.85a4.18,4.18,0,0,0-.9-2.88,3.2,3.2,0,0,0-2.52-1,3.5,3.5,0,0,0-2.63,1,3.17,3.17,0,0,0-.95,2.3v8.45h-2.53Z" style="fill:#0f57fb"/><path d="M449.7,109.93a5.38,5.38,0,0,1-2-2.06l1.21-1.56a5.35,5.35,0,0,0,1.67,1.79,3.73,3.73,0,0,0,2.1.64,2.78,2.78,0,0,0,1.85-.64,2.15,2.15,0,0,0,.76-1.75,1.65,1.65,0,0,0-.36-1.13,3.12,3.12,0,0,0-1.05-.72c-.46-.21-1-.45-1.74-.72a14,14,0,0,1-1.61-.77,3.86,3.86,0,0,1-1.28-1.08,2.67,2.67,0,0,1-.51-1.68,3.3,3.3,0,0,1,.6-1.94A4,4,0,0,1,450.93,97a5.57,5.57,0,0,1,2.37-.48,6,6,0,0,1,4,1.66l-1,1.54a4.07,4.07,0,0,0-3-1.43,2.41,2.41,0,0,0-1.6.5,1.57,1.57,0,0,0-.61,1.29,1.34,1.34,0,0,0,.44,1,3.9,3.9,0,0,0,1.13.71c.46.2.94.4,1.44.59a17.6,17.6,0,0,1,2,.86,3.37,3.37,0,0,1,1.3,1.14,3.2,3.2,0,0,1,.47,1.86,3.94,3.94,0,0,1-1.42,3.23,5.76,5.76,0,0,1-3.77,1.17A5.94,5.94,0,0,1,449.7,109.93Z" style="fill:#0f57fb"/><path d="M462.12,96.91h2.53v2.42a5.69,5.69,0,0,1,2.18-2.09,6.21,6.21,0,0,1,3-.75,6.42,6.42,0,0,1,3.43.93,6.54,6.54,0,0,1,2.37,2.52,8,8,0,0,1,0,7.26,6.64,6.64,0,0,1-2.37,2.53,6.25,6.25,0,0,1-3.39.92,6.07,6.07,0,0,1-5.26-2.91V117h-2.53Zm9.53,10.94a4.32,4.32,0,0,0,1.65-1.74,5.1,5.1,0,0,0,.6-2.52,5.28,5.28,0,0,0-.6-2.55,4.53,4.53,0,0,0-1.65-1.74,4.58,4.58,0,0,0-2.41-.63,4.63,4.63,0,0,0-2.41.63,4.55,4.55,0,0,0-1.67,1.73,5.68,5.68,0,0,0,0,5.08,4.51,4.51,0,0,0,1.67,1.74,4.63,4.63,0,0,0,2.41.63A4.58,4.58,0,0,0,471.65,107.85Z" style="fill:#0f57fb"/><path d="M483.52,109.76a7,7,0,0,1-2.7-2.5,7.37,7.37,0,0,1,0-7.38,7,7,0,0,1,2.7-2.49,8.56,8.56,0,0,1,7.64,0,6.94,6.94,0,0,1,2.69,2.49,7.31,7.31,0,0,1,0,7.38,7,7,0,0,1-2.69,2.5,8.64,8.64,0,0,1-7.64,0Zm6.33-1.93a4.52,4.52,0,0,0,1.74-1.73,5.32,5.32,0,0,0,0-5.06,4.49,4.49,0,0,0-1.74-1.72,5.3,5.3,0,0,0-5,0,4.59,4.59,0,0,0-1.75,1.72,5.4,5.4,0,0,0,0,5.06,4.61,4.61,0,0,0,1.75,1.73,5.3,5.3,0,0,0,5,0Z" style="fill:#0f57fb"/><path d="M499.08,96.91h2.52v2a4.37,4.37,0,0,1,4-2.37,5.55,5.55,0,0,1,1.26.15A4.44,4.44,0,0,1,508,97l-1,2.13a4.49,4.49,0,0,0-.94-.35,4.66,4.66,0,0,0-1-.13,3.29,3.29,0,0,0-1.66.45,3.79,3.79,0,0,0-1.28,1.17,2.7,2.7,0,0,0-.49,1.53v8.4h-2.52Z" style="fill:#0f57fb"/><path d="M512.28,109.57a4.61,4.61,0,0,1-.92-3v-7.7h-1.48V96.91h1.48v-5h2.53v5h3.2v1.91h-3.2v7.54c0,1.37.5,2.06,1.51,2.06a2.14,2.14,0,0,0,1.3-.43l.64,2a4.77,4.77,0,0,1-2.51.65A3.13,3.13,0,0,1,512.28,109.57Z" style="fill:#0f57fb"/><path d="M523.52,109.74a6.66,6.66,0,0,1-2.39-2.52,8.13,8.13,0,0,1,0-7.28,6.51,6.51,0,0,1,2.36-2.52,6.69,6.69,0,0,1,6.5-.17,5.39,5.39,0,0,1,2.17,2.09V96.91h2.52v13.33h-2.52v-2.5a6.31,6.31,0,0,1-2.24,2.15,6.08,6.08,0,0,1-3,.76A6.32,6.32,0,0,1,523.52,109.74Zm6.45-1.89a4.46,4.46,0,0,0,1.65-1.74,5.68,5.68,0,0,0,0-5.08A4.5,4.5,0,0,0,530,99.3a4.92,4.92,0,0,0-4.82,0,4.53,4.53,0,0,0-1.66,1.73,5.68,5.68,0,0,0,0,5.08,4.48,4.48,0,0,0,1.66,1.74,4.92,4.92,0,0,0,4.82,0Z" style="fill:#0f57fb"/><path d="M541,109.57a4.66,4.66,0,0,1-.91-3v-7.7h-1.48V96.91h1.48v-5h2.53v5h3.2v1.91h-3.2v7.54c0,1.37.5,2.06,1.51,2.06a2.16,2.16,0,0,0,1.3-.43l.64,2a4.78,4.78,0,0,1-2.52.65A3.16,3.16,0,0,1,541,109.57Z" style="fill:#0f57fb"/><path d="M550.11,93.75a1.55,1.55,0,0,1-.46-1.12,1.52,1.52,0,0,1,.46-1.12,1.58,1.58,0,0,1,2.69,1.12,1.59,1.59,0,0,1-.46,1.12,1.58,1.58,0,0,1-2.23,0ZM550,96.91h2.52v13.33H550Z" style="fill:#0f57fb"/><path d="M560.46,109.76a7,7,0,0,1,0-12.37,8.56,8.56,0,0,1,7.64,0,7,7,0,0,1,0,12.37,8.64,8.64,0,0,1-7.64,0Zm6.33-1.93a4.52,4.52,0,0,0,1.74-1.73,5.32,5.32,0,0,0,0-5.06,4.49,4.49,0,0,0-1.74-1.72,5,5,0,0,0-2.51-.63,4.94,4.94,0,0,0-2.5.63A4.59,4.59,0,0,0,560,101a5.32,5.32,0,0,0,0,5.06,4.61,4.61,0,0,0,1.75,1.73,4.94,4.94,0,0,0,2.5.63A5,5,0,0,0,566.79,107.83Z" style="fill:#0f57fb"/><path d="M576,96.91h2.52v1.72a4.75,4.75,0,0,1,1.76-1.53,5.78,5.78,0,0,1,2.72-.61,4.87,4.87,0,0,1,3.68,1.43,5.53,5.53,0,0,1,1.37,4v8.36h-2.53v-7.85a4.17,4.17,0,0,0-.89-2.88,3.21,3.21,0,0,0-2.53-1,3.5,3.5,0,0,0-2.63,1,3.21,3.21,0,0,0-1,2.3v8.45H576Z" style="fill:#0f57fb"/><circle cx="59.87" cy="113.31" r="15.98" style="fill:#0f57fb"/><path d="M31.85,63.92a15.91,15.91,0,0,0-2.58-8.7H90.36a16,16,0,1,1-.81,16H30.08A15.79,15.79,0,0,0,31.85,63.92Z" style="fill:#0f57fb"/><path d="M16,51.94a12,12,0,1,1-12,12,12,12,0,0,1,12-12m0-4a16,16,0,1,0,16,16,16,16,0,0,0-16-16Z" style="fill:#0f57fb"/><path d="M132.09,16a15.85,15.85,0,0,1,2.58-8.69H73.58a16,16,0,1,0,.81,16h59.47A15.83,15.83,0,0,1,132.09,16Z" style="fill:#0f57fb"/><path d="M148,4a12,12,0,1,1-12,12A12,12,0,0,1,148,4m0-4a16,16,0,1,0,16,16A16,16,0,0,0,148,0Z" style="fill:#0f57fb"/></svg>