<svg id="_024---Location-Points" data-name="024---Location-Points" xmlns="http://www.w3.org/2000/svg" width="18" height="17" viewBox="0 0 18 17">
  <path id="Shape" d="M5,15.245a10.7,10.7,0,0,1-.851-1.812,2.669,2.669,0,0,1-.917.166A2.55,2.55,0,0,1,.629,11.11,2.55,2.55,0,0,1,3.236,8.622a2.657,2.657,0,0,1,.587.067A5.061,5.061,0,0,1,4.048,8.1,3.309,3.309,0,0,0,3.259,8,3.27,3.27,0,0,0,.288,9.856,3.036,3.036,0,0,0,0,11.151a6.384,6.384,0,0,0,1.092,3.512c.022.035.042.062.063.093l.023.031a9.12,9.12,0,0,0,1.755,1.9V19.2H2.281a.311.311,0,1,0,0,.622H4.236a.311.311,0,1,0,0-.622H3.585V16.691A9.389,9.389,0,0,0,5,15.245Z" transform="translate(0 -5.426)" fill="#fff"/>
  <path id="Shape-2" data-name="Shape" d="M22.105,2.885A4.768,4.768,0,0,0,13,4.848a9.8,9.8,0,0,0,1.571,5.245c.032.057.064.1.093.145l.029.044a13.433,13.433,0,0,0,2.753,3.029v3.158h-.953a.315.315,0,1,0,0,.631h2.541a.315.315,0,1,0,0-.631h-.953V13.311a13.419,13.419,0,0,0,2.751-3.028l.032-.046c.03-.044.06-.088.087-.136a9.811,9.811,0,0,0,1.576-5.254,4.7,4.7,0,0,0-.422-1.963Zm-4.342,5.7A3.785,3.785,0,1,1,21.574,4.8,3.8,3.8,0,0,1,17.764,8.584Z" transform="translate(-8.764 -0.1)" fill="#fff"/>
  <path id="Shape-3" data-name="Shape" d="M45.362,9.856A3.271,3.271,0,0,0,42.391,8a3.311,3.311,0,0,0-.791.1,5,5,0,0,1,.223.584,2.672,2.672,0,0,1,.545-.058,2.55,2.55,0,0,1,2.607,2.488A2.55,2.55,0,0,1,42.368,13.6a2.677,2.677,0,0,1-.877-.151,10.8,10.8,0,0,1-.845,1.8,9.359,9.359,0,0,0,1.419,1.447v2.5h-.652a.311.311,0,1,0,0,.622h1.955a.311.311,0,1,0,0-.622h-.652V16.691a9.1,9.1,0,0,0,1.754-1.9l.025-.035c.021-.031.041-.058.06-.089a6.389,6.389,0,0,0,1.094-3.516A3.038,3.038,0,0,0,45.362,9.856Z" transform="translate(-27.649 -5.426)" fill="#fff"/>
</svg>
