<svg id="Group_19459" data-name="Group 19459" xmlns="http://www.w3.org/2000/svg" width="16" height="19" viewBox="0 0 16 19">
  <path id="Shape" d="M23.715,3.213a5.7,5.7,0,0,0-6.3-2.992A5.367,5.367,0,0,0,13,5.407a10.557,10.557,0,0,0,1.849,5.862c.037.064.075.113.109.163l.034.049a15.323,15.323,0,0,0,3.24,3.385v3.53H17.111a.353.353,0,1,0,0,.705H20.1a.353.353,0,1,0,0-.705H18.979v-3.53a15.306,15.306,0,0,0,3.238-3.384l.037-.051c.035-.05.07-.1.1-.152a10.573,10.573,0,0,0,1.854-5.872,5.031,5.031,0,0,0-.5-2.194ZM18.606,9.582a4.363,4.363,0,0,1-4.485-4.23,4.363,4.363,0,0,1,4.485-4.23,4.363,4.363,0,0,1,4.485,4.23A4.368,4.368,0,0,1,18.606,9.582Z" transform="translate(-13 -0.1)"/>
  <path id="Shape-2" data-name="Shape" d="M45.977,10.064A3.7,3.7,0,0,0,42.618,8a3.8,3.8,0,0,0-.894.107,5.5,5.5,0,0,1,.252.65,3.069,3.069,0,0,1,.616-.065,2.861,2.861,0,0,1,2.947,2.767,2.861,2.861,0,0,1-2.947,2.767,3.071,3.071,0,0,1-.992-.167,11.918,11.918,0,0,1-.955,2,10.49,10.49,0,0,0,1.6,1.609v2.785h-.737a.347.347,0,1,0,0,.692h2.21a.347.347,0,1,0,0-.692h-.737V17.665a10.184,10.184,0,0,0,1.982-2.113L45,15.513c.024-.035.046-.064.068-.1A7.024,7.024,0,0,0,46.3,11.5,3.332,3.332,0,0,0,45.977,10.064Z" transform="translate(-30.302 -5.09)"/>
</svg>
