<svg xmlns="http://www.w3.org/2000/svg" width="24" height="24" viewBox="0 0 24 24">
    <g transform="translate(2 2)">
        <circle cx="3" cy="3" r="3" transform="translate(7 7)" fill="none" stroke="#0f57fb"
            stroke-linecap="round" stroke-linejoin="round" stroke-miterlimit="10"
            stroke-width="2" />
        <path
            d="M16.727,12.727a1.5,1.5,0,0,0,.3,1.655l.055.055a1.819,1.819,0,1,1-2.573,2.573l-.055-.055a1.512,1.512,0,0,0-2.564,1.073v.155a1.818,1.818,0,1,1-3.636,0V18.1a1.5,1.5,0,0,0-.982-1.373,1.5,1.5,0,0,0-1.655.3l-.055.055a1.819,1.819,0,1,1-2.573-2.573l.055-.055a1.512,1.512,0,0,0-1.073-2.564H1.818a1.818,1.818,0,0,1,0-3.636H1.9a1.5,1.5,0,0,0,1.373-.982,1.5,1.5,0,0,0-.3-1.655l-.055-.055A1.819,1.819,0,1,1,5.491,2.991l.055.055a1.5,1.5,0,0,0,1.655.3h.073a1.5,1.5,0,0,0,.909-1.373V1.818a1.818,1.818,0,0,1,3.636,0V1.9a1.512,1.512,0,0,0,2.564,1.073l.055-.055a1.819,1.819,0,1,1,2.573,2.573l-.055.055a1.5,1.5,0,0,0-.3,1.655v.073a1.5,1.5,0,0,0,1.373.909h.155a1.818,1.818,0,0,1,0,3.636H18.1A1.5,1.5,0,0,0,16.727,12.727Z"
            transform="translate(0)" fill="none" stroke="#0f57fb" stroke-linecap="round"
            stroke-linejoin="round" stroke-miterlimit="10" stroke-width="2" />
    </g>
</svg>