<svg xmlns="http://www.w3.org/2000/svg" width="25" height="25" viewBox="0 0 25 25">
  <g id="Group_23962" data-name="Group 23962" transform="translate(-308 -1743)">
    <circle id="Ellipse_216" data-name="Ellipse 216" cx="12.5" cy="12.5" r="12.5" transform="translate(308 1743)" fill="#0f57fb"/>
    <path id="_3917084" data-name="3917084" d="M10.244,4.28,3.911,11.019a.439.439,0,0,1-.649,0L.812,8.41a.445.445,0,0,0-.325-.144.445.445,0,0,0-.325.144h0a.51.51,0,0,0,0,.691l2.45,2.607a1.321,1.321,0,0,0,1.948,0l6.333-6.737a.51.51,0,0,0,0-.691h0a.439.439,0,0,0-.649,0Z" transform="translate(314.972 1746.863)" fill="#fff"/>
  </g>
</svg>
