<svg id="snowflake" xmlns="http://www.w3.org/2000/svg" width="13" height="14" viewBox="0 0 13 14">
  <g id="Group_18803" data-name="Group 18803">
    <path id="Path_19940" data-name="Path 19940" d="M34.185,10.17,32.88,9.43l1.229-.7a.29.29,0,0,0,.106-.4l-.3-.5a.3.3,0,0,0-.4-.1L31.7,8.759l-.809-.712,1.793-.78a.29.29,0,0,0,0-.534l-1.817-.791.833-.466,1.825,1.049a.3.3,0,0,0,.4-.1l.3-.5a.29.29,0,0,0-.106-.4l-1.239-.712,1.306-.741a.289.289,0,0,0,.108-.4L34,3.162a.3.3,0,0,0-.4-.107L32.285,3.8V2.382a.294.294,0,0,0-.3-.29l-.591,0a.294.294,0,0,0-.294.293l0,2.078-.908.507,0-1.733a.29.29,0,0,0-.148-.285.3.3,0,0,0-.323.02l-1.3.888V2.672l1.835-1.037a.29.29,0,0,0,.11-.4L30.076.73a.3.3,0,0,0-.4-.109l-1.248.706V.292a.294.294,0,0,0-.3-.292h-.591a.294.294,0,0,0-.3.292v1.04L25.994.622a.3.3,0,0,0-.4.109l-.293.506a.29.29,0,0,0,.11.4l1.835,1.042V3.859l-1.287-.876a.3.3,0,0,0-.178-.059h-.012a.293.293,0,0,0-.3.292V5.021l-.9-.788.008-2.091a.294.294,0,0,0-.294-.293l-.591,0a.294.294,0,0,0-.3.29l-.005,1.427-1.313-.745a.3.3,0,0,0-.4.107l-.3.505a.289.289,0,0,0,.108.4l1.306.741-1.229.7a.29.29,0,0,0-.106.4l.3.5a.3.3,0,0,0,.4.1L23.97,5.241l.809.712-1.793.78a.29.29,0,0,0,0,.534l1.817.791-.833.466L22.145,7.474a.3.3,0,0,0-.4.1l-.3.5a.29.29,0,0,0,.106.4l1.239.712-1.306.741a.289.289,0,0,0-.108.4l.3.505a.3.3,0,0,0,.4.107l1.308-.742v1.414a.294.294,0,0,0,.3.29l.591,0a.293.293,0,0,0,.294-.293l0-2.078.908-.507,0,1.733a.29.29,0,0,0,.148.285.3.3,0,0,0,.323-.02l1.3-.888v1.193l-1.835,1.037a.29.29,0,0,0-.11.4l.293.506a.3.3,0,0,0,.4.109l1.248-.706v1.036a.294.294,0,0,0,.3.292h.591a.294.294,0,0,0,.3-.292v-1.04l1.248.71a.3.3,0,0,0,.4-.109l.293-.506a.29.29,0,0,0-.11-.4l-1.835-1.042V10.141l1.287.876a.3.3,0,0,0,.178.059H29.9a.293.293,0,0,0,.3-.292V8.979l.9.788-.008,2.091a.294.294,0,0,0,.294.293l.591,0a.294.294,0,0,0,.3-.29l.005-1.427,1.313.745a.3.3,0,0,0,.4-.107l.3-.505A.289.289,0,0,0,34.185,10.17Z" transform="translate(-21.333)"/>
  </g>
</svg>
