<svg xmlns="http://www.w3.org/2000/svg" width="30" height="30" viewBox="0 0 30 30">
    <g transform="translate(7.5 7)">
        <g transform="translate(3.244)">
            <path d="M115.048,0a4.257,4.257,0,1,0,4.257,4.257A4.269,4.269,0,0,0,115.048,0Z"
                transform="translate(-110.791)" fill="#fff" />
        </g>
        <g transform="translate(0 8.422)">
            <path
                d="M39.133,250.938a3.944,3.944,0,0,0-.437-.781,5.423,5.423,0,0,0-3.743-2.305.815.815,0,0,0-.551.13,4.72,4.72,0,0,1-5.472,0,.725.725,0,0,0-.551-.13,5.383,5.383,0,0,0-3.743,2.305,4.546,4.546,0,0,0-.437.781.388.388,0,0,0,.019.353,7.415,7.415,0,0,0,.513.744,7.118,7.118,0,0,0,.874.967,11.33,11.33,0,0,0,.874.744,8.817,8.817,0,0,0,10.336,0,8.309,8.309,0,0,0,.874-.744,8.651,8.651,0,0,0,.874-.967,6.513,6.513,0,0,0,.513-.744A.312.312,0,0,0,39.133,250.938Z"
                transform="translate(-24.165 -247.841)" fill="#fff" />
        </g>
    </g>
</svg>