<svg xmlns="http://www.w3.org/2000/svg" width="30" height="30" viewBox="0 0 30 30">
    <g transform="translate(8.5 7)">
        <path
            d="M62.5,16h10A1.457,1.457,0,0,0,74,14.594V4.688H70.5A1.457,1.457,0,0,1,69,3.281V0H62.5A1.457,1.457,0,0,0,61,1.406V14.594A1.457,1.457,0,0,0,62.5,16Zm2-9.406h6a.47.47,0,1,1,0,.938h-6a.47.47,0,1,1,0-.938Zm0,1.875h6a.47.47,0,1,1,0,.938h-6a.47.47,0,1,1,0-.937Zm0,1.875h6a.47.47,0,1,1,0,.938h-6a.47.47,0,1,1,0-.937Zm0,1.875h4a.47.47,0,1,1,0,.938h-4a.47.47,0,1,1,0-.938Z"
            transform="translate(-61)" fill="#fff" />
        <path d="M331.459,12.2h2.947L331,8.789v2.947A.46.46,0,0,0,331.459,12.2Z"
            transform="translate(-321.675 -8.52)" fill="#fff" />
    </g>
</svg>