<svg id="frontal-truck" xmlns="http://www.w3.org/2000/svg" width="13" height="15" viewBox="0 0 13 15">
  <path id="Path_19939" data-name="Path 19939" d="M58.237,12.26V9.947a.909.909,0,0,0-.917-.9h-.24V.6a.224.224,0,0,0-.1-.188L56.394.038a.23.23,0,0,0-.356.188V2.938l-.174-.459A1.6,1.6,0,0,0,54.36,1.451H50.351a1.6,1.6,0,0,0-1.509,1.037l-.166.449V.226A.23.23,0,0,0,48.32.038l-.582.378a.224.224,0,0,0-.1.188V9.048h-.24a.909.909,0,0,0-.917.9V12.26h-.391a.227.227,0,0,0-.229.225v1.244a.227.227,0,0,0,.229.225h.989v.6a.454.454,0,0,0,.459.45H48.75a.454.454,0,0,0,.459-.45v-.6h6.3v.6a.454.454,0,0,0,.459.45H57.18a.454.454,0,0,0,.459-.45v-.6h.989a.227.227,0,0,0,.229-.225V12.485a.227.227,0,0,0-.229-.225Zm-9.258-8.07h6.756V6.407H48.979Zm-.157,7.44h-.783a.429.429,0,0,1-.433-.425v-.011a.429.429,0,0,1,.433-.425h.783a.429.429,0,0,1,.433.425v.011A.429.429,0,0,1,48.822,11.631Zm5.094.125H50.8a.454.454,0,0,1-.459-.45V8.456a.454.454,0,0,1,.459-.45h3.118a.454.454,0,0,1,.459.45v2.851A.454.454,0,0,1,53.916,11.756Zm2.759-.125h-.783a.429.429,0,0,1-.433-.425v-.011a.429.429,0,0,1,.433-.425h.783a.429.429,0,0,1,.433.425v.011A.429.429,0,0,1,56.675,11.631ZM53.846,9.652H50.86a.225.225,0,0,1-.227-.223v0A.225.225,0,0,1,50.86,9.2h2.986a.225.225,0,0,1,.227.223v0A.225.225,0,0,1,53.846,9.652Zm0-.9H50.86a.225.225,0,0,1-.227-.223v0A.225.225,0,0,1,50.86,8.3h2.986a.225.225,0,0,1,.227.223v0A.225.225,0,0,1,53.846,8.752Zm0,2.7H50.86a.225.225,0,0,1-.227-.223v0A.225.225,0,0,1,50.86,11h2.986a.225.225,0,0,1,.227.223v0A.225.225,0,0,1,53.846,11.452Zm0-.9H50.86a.225.225,0,0,1-.227-.223v0a.225.225,0,0,1,.227-.223h2.986a.225.225,0,0,1,.227.223v0A.225.225,0,0,1,53.846,10.552Z" transform="translate(-45.857 0)" fill="#fff"/>
</svg>
