<svg xmlns="http://www.w3.org/2000/svg" width="15" height="10" viewBox="0 0 15 10">
  <path id="_3914390" data-name="3914390" d="M11.875,14H3.125A3.129,3.129,0,0,1,0,10.875V7.125A3.129,3.129,0,0,1,3.125,4h8.75A3.129,3.129,0,0,1,15,7.125v3.75A3.129,3.129,0,0,1,11.875,14ZM3.125,5.25A1.875,1.875,0,0,0,1.25,7.125v3.75A1.875,1.875,0,0,0,3.125,12.75h8.75a1.875,1.875,0,0,0,1.875-1.875V7.125A1.875,1.875,0,0,0,11.875,5.25ZM7.5,11.5A2.5,2.5,0,1,1,10,9,2.5,2.5,0,0,1,7.5,11.5Zm0-3.75A1.25,1.25,0,1,0,8.75,9,1.25,1.25,0,0,0,7.5,7.75ZM3.125,6.5a.625.625,0,1,0,.625.625A.625.625,0,0,0,3.125,6.5Zm8.125.625a.625.625,0,1,0,.625-.625A.625.625,0,0,0,11.25,7.125ZM3.125,10.25a.625.625,0,1,0,.625.625A.625.625,0,0,0,3.125,10.25Zm8.125.625a.625.625,0,1,0,.625-.625A.625.625,0,0,0,11.25,10.875Z" transform="translate(0 -4)" fill="#fff"/>
</svg>
