<svg xmlns="http://www.w3.org/2000/svg" width="64" height="64" viewBox="0 0 64 64"><path d="M64,32A32,32,0,1,1,32,0,32,32,0,0,1,64,32Zm0,0" fill="#eaf0ff"/><path d="M164.609,171.067,150.28,156.738,115,186.8,129.2,201a32.436,32.436,0,0,0,3.436.184A32.027,32.027,0,0,0,164.609,171.067Zm0,0" transform="translate(-100.667 -137.184)" fill="#bccdf8"/><path d="M211,120.214v30.012h-5.168L184.4,132.613,193.356,115Zm0,0" transform="translate(-161.362 -100.613)" fill="#284cb2"/><path d="M132.64,115v31.1l-12.472,4.128H115V120.214Zm0,0" transform="translate(-100.63 -100.613)" fill="#5488e2"/><path d="M312.158,198.719v4.134H308l-2.067-2.067L308,198.719Zm0,0" transform="translate(-267.695 -173.88)" fill="#276ef1"/><path d="M278.928,198.719v4.134h-4.157l-2.068-2.067,2.068-2.067Zm0,0" transform="translate(-238.618 -173.88)" fill="#276ef1"/><path d="M245.7,198.719v4.134h-4.157l-2.067-2.067,2.067-2.067Zm0,0" transform="translate(-209.545 -173.88)" fill="#276ef1"/><path d="M212.471,198.719v4.134h-4.157l-2.067-2.067,2.067-2.067Zm0,0" transform="translate(-180.468 -173.88)" fill="#a0bff9"/><path d="M179.607,198.719v4.134H175.45l-2.067-2.067,2.067-2.067Zm0,0" transform="translate(-151.712 -173.88)" fill="#a0bff9"/><path d="M156.68,198.719h4.157v4.134H156.68Zm0,0" transform="translate(-137.096 -173.88)" fill="#a0bff9"/><path d="M225.1,248.289v18.6H212.628l-6.2-9.3,6.2-9.3Zm0,0" transform="translate(-180.632 -217.264)" fill="#284cb2"/><path d="M156.309,248.289h12.472v18.6H156.309Zm0,0" transform="translate(-136.774 -217.264)" fill="#284cb2"/><path d="M189.8,271.01l3.814-2.063v-4.134h-10.4l-10.376,4.134v4.134l4.082,2.067-4.082,2.067v4.134h10.4l10.4-4.134v-4.134Zm0,0" transform="translate(-151.237 -231.721)" fill="#a0bff9"/><path d="M256,363.953h10.4v4.134H256Zm0,0" transform="translate(-224.005 -318.462)" fill="#eaf0ff"/><path d="M256,297.859h10.4v4.134H256Zm0,0" transform="translate(-224.005 -260.629)" fill="#eaf0ff"/><g transform="translate(21.6 33.095)"><path d="M172.832,264.813h10.4v4.134h-10.4Zm0,0" transform="translate(-172.832 -264.813)" fill="#eaf0ff"/><path d="M172.832,330.906h10.4v4.134h-10.4Zm0,0" transform="translate(-172.832 -322.638)" fill="#eaf0ff"/></g></svg>