<svg xmlns="http://www.w3.org/2000/svg" width="13" height="14" viewBox="0 0 13 14">
  <path id="_3914123" data-name="3914123" d="M7.51,14.013a3.226,3.226,0,0,1-2.252-.906L2.927,10.981A6.361,6.361,0,0,1,2.91,1.9a6.565,6.565,0,0,1,9.2-.016,6.362,6.362,0,0,1,0,9.08l-2.36,2.153a3.209,3.209,0,0,1-2.239.895Zm0-12.841A5.323,5.323,0,0,0,2.593,4.416,5.2,5.2,0,0,0,3.747,10.14l2.326,2.122a2.1,2.1,0,0,0,2.861.011l2.356-2.149a5.205,5.205,0,0,0-.017-7.412A5.321,5.321,0,0,0,7.51,1.173Zm0,9.339a4.086,4.086,0,1,1,4.139-4.086A4.113,4.113,0,0,1,7.51,10.512Zm0-7a2.919,2.919,0,1,0,2.956,2.918A2.938,2.938,0,0,0,7.51,3.508ZM8.519,7.422a.578.578,0,0,0,0-.825L8.1,6.184V5.259a.591.591,0,0,0-1.183,0V6.426a.58.58,0,0,0,.173.413l.591.584a.6.6,0,0,0,.836,0Z" transform="translate(-1.014 -0.014)" fill="#fff"/>
</svg>
