<svg id="_3917698" data-name="3917698" xmlns="http://www.w3.org/2000/svg" width="12" height="12" viewBox="0 0 12 12">
  <path id="Path_23945" data-name="Path 23945" d="M19.456,9.481h-.988V8.494a.494.494,0,0,0-.988,0v.988h-.988a.494.494,0,0,0,0,.988h.988v.988a.494.494,0,1,0,.988,0v-.988h.988a.494.494,0,0,0,0-.988Z" transform="translate(-7.95 -3.975)" fill="#fff"/>
  <path id="Path_23946" data-name="Path 23946" d="M5.963,5.925A2.963,2.963,0,1,0,3,2.963,2.963,2.963,0,0,0,5.963,5.925Zm0-4.938A1.975,1.975,0,1,1,3.988,2.963,1.975,1.975,0,0,1,5.963.988Z" transform="translate(-1.519 0)" fill="#fff"/>
  <path id="Path_23947" data-name="Path 23947" d="M4.444,14A4.449,4.449,0,0,0,0,18.444a.494.494,0,1,0,.988,0,3.456,3.456,0,0,1,6.913,0,.494.494,0,0,0,.988,0A4.449,4.449,0,0,0,4.444,14Z" transform="translate(0 -6.938)" fill="#fff"/>
</svg>
