<svg xmlns="http://www.w3.org/2000/svg" width="11" height="14" viewBox="0 0 11 14">
  <path id="_3914245" data-name="3914245" d="M12.778,1.763V.583a.612.612,0,0,0-1.222,0v.642a3.2,3.2,0,0,0-.611-.058h-.611V.583a.612.612,0,0,0-1.222,0v.583H7.889V.583a.612.612,0,0,0-1.222,0v.583H6.056a3.2,3.2,0,0,0-.611.058V.583a.612.612,0,0,0-1.222,0V1.763A2.863,2.863,0,0,0,3,4.083v7A2.992,2.992,0,0,0,6.056,14h4.889A2.992,2.992,0,0,0,14,11.083v-7a2.863,2.863,0,0,0-1.222-2.321Zm0,9.32a1.793,1.793,0,0,1-1.833,1.75H6.056a1.793,1.793,0,0,1-1.833-1.75v-7a1.793,1.793,0,0,1,1.833-1.75h4.889a1.793,1.793,0,0,1,1.833,1.75ZM11.556,4.667a.6.6,0,0,1-.611.583H6.056a.584.584,0,1,1,0-1.167h4.889A.6.6,0,0,1,11.556,4.667Zm0,2.333a.6.6,0,0,1-.611.583H6.056a.584.584,0,1,1,0-1.167h4.889A.6.6,0,0,1,11.556,7ZM9.111,9.333a.6.6,0,0,1-.611.583H6.056a.584.584,0,1,1,0-1.167H8.5A.6.6,0,0,1,9.111,9.333Z" transform="translate(-3)" fill="#fff"/>
</svg>
