<svg xmlns="http://www.w3.org/2000/svg" width="14" height="13" viewBox="0 0 14 13">
  <path id="_3914555" data-name="3914555" d="M13.939,7.155A7.022,7.022,0,0,0,6.542,1,7.049,7.049,0,0,0,0,8.078a7.054,7.054,0,0,0,2.192,5.144,2.8,2.8,0,0,0,1.956.76h5.7a2.894,2.894,0,0,0,2.047-.844,7.1,7.1,0,0,0,2.048-5.983Zm-2.863,5.137a1.739,1.739,0,0,1-1.231.51h-5.7a1.657,1.657,0,0,1-1.155-.438A5.88,5.88,0,0,1,1.166,8.078a5.945,5.945,0,0,1,1.947-4.4,5.723,5.723,0,0,1,3.877-1.5,6.081,6.081,0,0,1,.685.039,5.845,5.845,0,0,1,4.844,3.954,5.952,5.952,0,0,1-1.443,6.128ZM4.553,10.608a.6.6,0,0,1,.009.835.579.579,0,0,1-.825.009A4.766,4.766,0,0,1,2.681,6.294,4.643,4.643,0,0,1,7.665,3.4a.6.6,0,0,1,.268,1.06.572.572,0,0,1-.435.109A3.489,3.489,0,0,0,3.866,6.51a3.575,3.575,0,0,0,.687,4.1Zm7.064-3.2a4.824,4.824,0,0,1,.047.675,4.711,4.711,0,0,1-1.4,3.375.579.579,0,0,1-.826-.009.6.6,0,0,1,.009-.836,3.557,3.557,0,0,0,1.017-3.035A.584.584,0,1,1,11.616,7.4Zm-3.5.373a1.207,1.207,0,0,1-.545,1.358,1.175,1.175,0,0,1-1.436-.188,1.211,1.211,0,0,1-.186-1.454A1.18,1.18,0,0,1,7.3,6.941L9.5,4.708a.578.578,0,0,1,.825,0,.6.6,0,0,1,0,.835Z" transform="translate(0 -0.983)" fill="#fff"/>
</svg>
