<svg xmlns="http://www.w3.org/2000/svg" width="14" height="10" viewBox="0 0 14 10">
  <g id="_3916663" data-name="3916663" transform="translate(0 -3)">
    <circle id="Ellipse_218" data-name="Ellipse 218" cx="1" cy="1" r="1" transform="translate(2.126 8.968)" fill="#fff"/>
    <path id="Path_24067" data-name="Path 24067" d="M11.083,3H2.917A2.853,2.853,0,0,0,0,5.778v4.444A2.853,2.853,0,0,0,2.917,13h8.167A2.853,2.853,0,0,0,14,10.222V5.778A2.853,2.853,0,0,0,11.083,3ZM2.917,4.111h8.167a1.71,1.71,0,0,1,1.75,1.667H1.167a1.71,1.71,0,0,1,1.75-1.667Zm8.167,7.778H2.917a1.71,1.71,0,0,1-1.75-1.667V6.889H12.833v3.333A1.71,1.71,0,0,1,11.083,11.889Z" fill="#fff"/>
  </g>
</svg>
