<svg xmlns="http://www.w3.org/2000/svg" width="7" height="12" viewBox="0 0 7 12">
  <path id="_3916676" data-name="3916676" d="M9.466,2A1.536,1.536,0,0,1,11,3.534a.5.5,0,0,0,1,0V3.473A2.537,2.537,0,0,0,9.466,1H9V.5a.5.5,0,1,0-1,0V1H7.534a2.534,2.534,0,0,0-.8,4.937L8,6.36V10H7.534A1.536,1.536,0,0,1,6,8.466a.5.5,0,0,0-1,0v.062A2.536,2.536,0,0,0,7.534,11H8v.5a.5.5,0,0,0,1,0V11h.466a2.534,2.534,0,0,0,.8-4.938L9,5.64V2Zm.485,5.01A1.534,1.534,0,0,1,9.466,10H9V6.694ZM8,5.306,7.05,4.99A1.534,1.534,0,0,1,7.534,2H8Z" transform="translate(-5)" fill="#fff"/>
</svg>
