<svg xmlns="http://www.w3.org/2000/svg" width="11" height="13" viewBox="0 0 11 13">
  <path id="_3914154" data-name="3914154" d="M11.872,3,9.955,1.11A3.855,3.855,0,0,0,7.233,0H4.75A2.733,2.733,0,0,0,2,2.708v7.583A2.733,2.733,0,0,0,4.75,13h5.5A2.733,2.733,0,0,0,13,10.292V5.679A3.738,3.738,0,0,0,11.872,3Zm-.778.766a2.721,2.721,0,0,1,.43.569H9.15a.546.546,0,0,1-.55-.542V1.453a2.757,2.757,0,0,1,.577.423Zm.805,6.527a1.638,1.638,0,0,1-1.65,1.625H4.75A1.638,1.638,0,0,1,3.1,10.292V2.708A1.638,1.638,0,0,1,4.75,1.083H7.233c.091,0,.178.017.267.025V3.792A1.638,1.638,0,0,0,9.15,5.417h2.724c.008.088.026.173.026.263ZM10.1,7.21a.536.536,0,0,1-.019.765L8.1,9.825a1.668,1.668,0,0,1-2.324-.009l-.847-.744a.536.536,0,0,1-.045-.765.556.556,0,0,1,.777-.044l.872.766a.556.556,0,0,0,.8.022l1.98-1.858a.556.556,0,0,1,.779.019Z" transform="translate(-2)" fill="#fff"/>
</svg>
