<svg xmlns="http://www.w3.org/2000/svg" width="65" height="52" viewBox="0 0 65 52">
  <g id="Group_23947" data-name="Group 23947" transform="translate(-288 -1235)">
    <path id="Path_23920" data-name="Path 23920" d="M360.822,277.811l-25.173-14.533-17.322,10L343.5,287.815Z" transform="translate(-30.327 994.785)" fill="#e8e8e8"/>
    <path id="Path_23921" data-name="Path 23921" d="M368.455,275.4l3.523-2.034,8.04-4.642,0-22.929-8.055,4.649-3.51,2.025-8.731,5.042.005,22.921v.009Z" transform="translate(-40.731 999.177)" fill="#fffdfd"/>
    <path id="Path_23922" data-name="Path 23922" d="M379.844,268.727l0-22.308-19.684,11.448-.07,22.266Z" transform="translate(-40.823 998.997)" fill="#bcbbbb"/>
    <path id="Path_23923" data-name="Path 23923" d="M379.844,272.837l-17.427-10.061-2.282,1.456-.048,20.01Z" transform="translate(-40.823 994.897)" fill="#ebebeb"/>
    <path id="Path_23924" data-name="Path 23924" d="M353.986,254.186l-17.1-9.874,8.676-5.049,3.512-2.046,8.021-4.666,17.176,9.918-8.053,4.649-3.522,2.039Z" transform="translate(-34.99 1002.449)" fill="#ebebeb"/>
    <path id="Path_23925" data-name="Path 23925" d="M353.966,258.132l-17.1-9.87-.061,22.88,17.16,9.909Z" transform="translate(-34.972 998.557)" fill="#bcbbbb"/>
    <path id="Path_23926" data-name="Path 23926" d="M386.784,267.662l11.439-2.067.247-22.413-.386-.224-11.342,2.125-.239.334-.009,22.084Z" transform="translate(-47.459 999.851)" fill="#fffdfd"/>
    <path id="Path_23927" data-name="Path 23927" d="M398.458,243.251l-11.959,2.24-.021,22.446.294.16,11.564-2.037Z" transform="translate(-47.455 999.777)" fill="#ebebeb"/>
    <path id="Path_23928" data-name="Path 23928" d="M393.734,280.861,379.5,276.693,359.871,287.8l-.144.337,14.239,4.531,19.768-11.349Z" transform="translate(-40.734 991.415)" fill="#cbcbcb"/>
    <path id="Path_23929" data-name="Path 23929" d="M359.919,287.682l14.1,4.444,19.76-11.385-13.98-4.529Z" transform="translate(-40.783 991.536)" fill="#ebebeb"/>
    <path id="Path_23930" data-name="Path 23930" d="M340.325,254.287v-.163l2.106,1.216v.163Z" transform="translate(-35.855 997.047)" fill="#4f4e4e"/>
    <path id="Path_23931" data-name="Path 23931" d="M342.486,255.936l-.1-.172.505-.251-.505-.831.1-.064.613,1.015Z" transform="translate(-36.374 996.923)" fill="#4f4e4e"/>
    <path id="Path_23932" data-name="Path 23932" d="M340.325,256.441v-.163l2.106,1.215v.162Z" transform="translate(-35.855 996.506)" fill="#4f4e4e"/>
    <path id="Path_23933" data-name="Path 23933" d="M342.486,258.092l-.1-.175.5-.247-.5-.833.1-.065.613,1.016Z" transform="translate(-36.374 996.382)" fill="#4f4e4e"/>
    <path id="Path_23934" data-name="Path 23934" d="M340.229,256.241v-3.014c0-.044.031-.061.07-.039a.154.154,0,0,1,.07.119v3.014c0,.043-.029.06-.069.038A.155.155,0,0,1,340.229,256.241Z" transform="translate(-35.832 997.285)" fill="#4f4e4e"/>
    <path id="Path_23935" data-name="Path 23935" d="M339.483,255.692v-2.96c0-.314.22-.439.49-.285l2.562,1.478a1.084,1.084,0,0,1,.49.851l0,2.96c0,.311-.22.436-.491.282l-2.563-1.481A1.081,1.081,0,0,1,339.483,255.692Zm3.4-1a.777.777,0,0,0-.35-.608l-2.562-1.48c-.193-.111-.35-.019-.35.2v2.958a.767.767,0,0,0,.349.6l2.562,1.482c.193.111.351.019.352-.2Z" transform="translate(-35.644 997.485)" fill="#4f4e4e"/>
    <path id="Path_23936" data-name="Path 23936" d="M339.5,262.019v-2.961c0-.311.219-.437.487-.282l2.563,1.48a1.084,1.084,0,0,1,.491.846v2.959c0,.313-.218.437-.487.281l-2.564-1.48A1.079,1.079,0,0,1,339.5,262.019Zm3.4-1a.765.765,0,0,0-.35-.606l-2.565-1.48c-.19-.112-.347-.024-.348.2v2.96a.78.78,0,0,0,.35.6l2.564,1.482c.192.109.351.019.35-.2Z" transform="translate(-35.647 995.9)" fill="#4f4e4e"/>
    <path id="Path_23937" data-name="Path 23937" d="M340.43,261.672c0-.046.031-.064.071-.041l1.834,1.059a.155.155,0,0,1,.07.123c0,.045-.032.062-.07.04l-1.837-1.06A.158.158,0,0,1,340.43,261.672Z" transform="translate(-35.882 995.169)" fill="#4f4e4e"/>
    <path id="Path_23938" data-name="Path 23938" d="M340.431,261.913v-.732c0-.045.031-.064.069-.043a.153.153,0,0,1,.07.124v.733c0,.045-.031.061-.069.04A.156.156,0,0,1,340.431,261.913Z" transform="translate(-35.882 995.292)" fill="#4f4e4e"/>
    <path id="Path_23939" data-name="Path 23939" d="M342.865,263.675l-.857-.5a.923.923,0,0,1-.421-.725v-.592c0-.268.187-.377.419-.242l.857.495v.292l-.919-.53c-.037-.022-.069,0-.067.04a.153.153,0,0,0,.067.123l.918.529Z" transform="translate(-36.172 995.184)" fill="#4f4e4e"/>
    <path id="Path_23940" data-name="Path 23940" d="M362.552,262.117l0-2.237-2.392,1.391-.008,2.233Z" transform="translate(-40.837 995.607)" fill="#bcbbbb"/>
    <path id="Path_23941" data-name="Path 23941" d="M387.652,236.123l-7.908,7.546-19.671,11.567-.319-.189,7.557-7.862,20.034-11.24Z" transform="translate(-40.741 1001.597)" fill="#cbcbcb"/>
    <path id="Path_23942" data-name="Path 23942" d="M379.892,243.8l7.867-7.614-20.03,11.244L360.18,255.3Z" transform="translate(-40.849 1001.537)" fill="#bcbbbb"/>
    <path id="Path_23943" data-name="Path 23943" d="M357.162,283.973l.478-22.333-.357-.2-7.081,7.4-.13,22.743.29.168Z" transform="translate(-38.305 995.247)" fill="#cbcbcb"/>
    <path id="Path_23944" data-name="Path 23944" d="M357.668,283.974l.07-22.266-7.147,7.371-.132,22.742,6.94-7.382Z" transform="translate(-38.402 995.179)" fill="#ebebeb"/>
  </g>
</svg>
