<svg xmlns="http://www.w3.org/2000/svg" width="12" height="12" viewBox="0 0 12 12">
  <path id="_3914150" data-name="3914150" d="M8.5,12A3.5,3.5,0,1,1,12,8.5,3.5,3.5,0,0,1,8.5,12Zm0-6A2.5,2.5,0,1,0,11,8.5,2.5,2.5,0,0,0,8.5,6Zm.853,3.354a.5.5,0,0,0,0-.707L9,8.293V7.5a.5.5,0,1,0-1,0v1a.5.5,0,0,0,.146.353l.5.5a.5.5,0,0,0,.707,0ZM1,11.5A4.15,4.15,0,0,1,4.11,7.488a.5.5,0,0,0-.221-.976A5.106,5.106,0,0,0,0,11.5a.5.5,0,1,0,1,0Zm3.237-6a2.75,2.75,0,1,1,2.75-2.75A2.75,2.75,0,0,1,4.237,5.5Zm0-4.5a1.75,1.75,0,1,0,1.75,1.75A1.75,1.75,0,0,0,4.237,1Z" transform="translate(0)" fill="#fff"/>
</svg>
