<svg id="Layer_1" data-name="Layer 1" xmlns="http://www.w3.org/2000/svg" viewBox="0 0 180.84 178.94"><defs><style>.cls-1{fill:#acacac;}.cls-2{fill:#c9c8c6;}</style></defs><title>no internet connection</title><g id="_2" data-name=" 2"><g id="_4" data-name=" 4"><g id="_4-2" data-name=" 4-2"><path id="Path_20940" data-name="Path 20940" class="cls-1" d="M79,134.61l.06,0v0c3.12-.69,6.94,0,11.08,2.4,10.64,6.1,19.28,20.65,19.19,32.44,0,4.52-1.35,7.94-3.56,10.1h0l0,0a14.77,14.77,0,0,1-5.27,2.89l-6.55,3.6-26.3-45.39,7.21-3.87A8.86,8.86,0,0,1,79,134.61Z" transform="translate(-0.01 -8.06)"/><path id="Path_20941" data-name="Path 20941" class="cls-1" d="M54.85,95.28c6.9-3.67,18.88-6.56,35.18,2.46,17.69,9.78,30.89,29.05,38.32,42.18,3.9,6.89,3.14,14.19-1.55,15.14l-2.44,1.34L117.89,160,77.54,114.23a21.91,21.91,0,0,0-11.66,2.33c-2.93,1.5-7.24-.65-10.38-5.21l0,0c-1.14-1.65-2-3.4.82-7.35l-11.19-2.42Z" transform="translate(-0.01 -8.06)"/><path id="Path_20942" data-name="Path 20942" class="cls-1" d="M34.05,57.48C44.12,52.22,63.6,47.22,90.81,61c29.72,15.1,50.32,44.34,60.36,61.26,3.94,6.62,3.27,13.84-1.32,15-.34.09-2.79,1.59-3.15,1.61l-6.86,3.74-31.79-42.35-44-26.11a42.72,42.72,0,0,0-20.67,4.93c-3,1.6-7.44-.7-10.51-5.4l0-.08-.15-.25-2.81-.07L24.21,64.2,29.78,60Z" transform="translate(-0.01 -8.06)"/><path id="Path_20943" data-name="Path 20943" class="cls-1" d="M2.38,23.48l8-5.68C21.44,10.29,48-1,90.82,20.65l1.33.68c45.22,23.45,73.5,64,85.78,84.94,3.06,5.2,3.87,9.85,1.69,12.68l-2.2,2.2-1.26.7a16.72,16.72,0,0,1-3.09,1.52l-7.37,3.86-13-17.77L99.07,48.32l-30-16c-24.69-6.72-40.58.42-47.83,5.25C18.4,39.44,14,37.39,11,32.79h0a18.09,18.09,0,0,1-2.81-7Z" transform="translate(-0.01 -8.06)"/></g><g id="_3-2" data-name=" 3-2"><g id="Group_20075" data-name="Group 20075"><path id="Path_20944" data-name="Path 20944" class="cls-2" d="M3,38.86c3,4.65,7.33,6.74,10.11,4.86,9-6.12,31.67-15.94,68.45,3.72l1.14.61c38.53,21,62,56.25,71.6,73.26,3.09,5.46,8.08,8.76,11.78,7.77h0c4.63-1.25,5.3-8.57,1.4-15.4-12.1-21.14-40-62.17-84.5-86L81.65,27C39.5,4.91,13.3,16.22,2.36,23.74-1,26.06-.73,33.17,3,38.85Z" transform="translate(-0.01 -8.06)"/></g><g id="Group_20076" data-name="Group 20076"><path id="Path_20945" data-name="Path 20945" class="cls-2" d="M24.58,78.66c3,4.78,7.42,7.14,10.36,5.52C42.56,80,59,74.54,81.75,86.74l.8.44C105.28,99.71,121,123,128.38,136.09c3,5.33,7.88,8.52,11.46,7.56h0c4.52-1.21,5.17-8.45,1.29-15.18-9.9-17.19-30.2-46.8-59.49-62.23-28.22-14.82-48-8.18-57.43-2.76-3.58,2.05-3.41,9.2.32,15.1Z" transform="translate(-0.01 -8.06)"/></g><g id="Group_20077" data-name="Group 20077"><path id="Path_20946" data-name="Path 20946" class="cls-2" d="M117.08,160.72h0c4.62-.92,5.36-8.16,1.53-15-7.33-13.06-20.35-32.23-37.78-42-16.06-9-27.86-6.2-34.67-2.58-3.87,2-3.58,9.75.62,15.9l0,0c3.1,4.53,7.35,6.69,10.23,5.21,4.71-2.42,12.93-4.4,23.68,1.74,11.38,6.5,20.35,20,25.39,29.08C109,158.24,113.61,161.41,117.08,160.72Z" transform="translate(-0.01 -8.06)"/></g><path id="Path_20947" data-name="Path 20947" class="cls-2" d="M62.25,152.09c0,11.47,8.2,25.76,18.54,32s19.08,2,19.15-9.66S91.49,148.26,81,142.17,62.3,140.62,62.25,152.09Z" transform="translate(-0.01 -8.06)"/></g></g></g></svg>