<svg xmlns="http://www.w3.org/2000/svg" xmlns:xlink="http://www.w3.org/1999/xlink" width="239" height="193" viewBox="0 0 239 193">
  <defs>
    <linearGradient id="linear-gradient" y1="0.5" x2="1" y2="0.5" gradientUnits="objectBoundingBox">
      <stop offset="0.006" stop-color="#bcbbba"/>
      <stop offset="0.112" stop-color="#c4c3c2"/>
      <stop offset="0.557" stop-color="#c1c0bf"/>
      <stop offset="0.791" stop-color="#b9b8b7"/>
      <stop offset="0.975" stop-color="#acabaa"/>
      <stop offset="1" stop-color="#aaa9a8"/>
    </linearGradient>
    <linearGradient id="linear-gradient-2" y1="0.5" x2="1" y2="0.5" gradientUnits="objectBoundingBox">
      <stop offset="0.444" stop-color="#bbbab9"/>
      <stop offset="0.827" stop-color="#b9b8b7"/>
      <stop offset="0.965" stop-color="#b2b1b0"/>
      <stop offset="1" stop-color="#afaead"/>
    </linearGradient>
    <radialGradient id="radial-gradient" cx="-0.191" cy="0.656" r="1.776" gradientTransform="translate(0.098) scale(0.804 1)" gradientUnits="objectBoundingBox">
      <stop offset="0.006" stop-color="#f5f5f5"/>
      <stop offset="1" stop-color="#f4f4f3"/>
    </radialGradient>
  </defs>
  <g id="Group_20070" data-name="Group 20070" transform="translate(-1031.71 -260.033)">
    <path id="Path_20912" data-name="Path 20912" d="M1160.353,410.7l-54.977-1.1-73.666-47.278,57.173-36.284" transform="translate(0 42.337)" fill="#dedede" opacity="0.7"/>
    <path id="Path_20913" data-name="Path 20913" d="M1190.957,314.533v58.549l-78.34,44.53-.825-79.989" transform="translate(51.304 34.87)" fill="#b6b5b4"/>
    <path id="Path_20914" data-name="Path 20914" d="M1065.542,314.033v58.549l77.1,45.355V347.431" transform="translate(21.729 34.546)" fill="#9c9b9a"/>
    <path id="Path_20915" data-name="Path 20915" d="M1098.542,333.578l23.367-11.545,23.637,11.957-24.327,10.72Z" transform="translate(42.997 39.946)" fill="#dfdedc"/>
    <path id="Path_20916" data-name="Path 20916" d="M1077.979,341.671l-29.687-37.108,77.516-44.53,28.862,37.108Z" transform="translate(10.766)" fill="#c9c8c6"/>
    <path id="Path_20917" data-name="Path 20917" d="M1112.792,296.925l76.829,45.906,29.136-37.385-78.064-45.078Z" transform="translate(51.953 0.217)" fill="#dedddc"/>
    <path id="Path_20918" data-name="Path 20918" d="M1120.856,359.775l21.991-12.1.135-65.146-76.691,44.53Z" transform="translate(22.211 14.444)" fill="url(#linear-gradient)"/>
    <path id="Path_20919" data-name="Path 20919" d="M1112.846,282.533l-.135,65.146,20.339,12.92,56.626-32.161Z" transform="translate(51.9 14.443)" fill="url(#linear-gradient-2)"/>
    <path id="Path_20920" data-name="Path 20920" d="M1112.292,354.287l78.752-43.293,25.976-3.711-81.638,49.066Z" transform="translate(51.628 30.4)" fill="#e9e7e6"/>
    <path id="Path_20921" data-name="Path 20921" d="M1152.384,354.287l-75.866-43.293-25.976-3.711,78.752,49.478Z" transform="translate(12.227 30.399)" fill="#dddbda"/>
    <path id="Path_20922" data-name="Path 20922" d="M1072.043,332.752l12.094,34.634,32.711,1.375L1102.83,333.3Z" transform="translate(25.951 46.822)" fill="url(#radial-gradient)"/>
    <g id="Group_20069" data-name="Group 20069" transform="translate(1168.9 395.285)">
      <path id="Path_20923" data-name="Path 20923" d="M1149.574,342.744c-2.131,1.15-30.678,15.909-31.966,16.611-2.113,1.15-2.616,2.731-2.373,4.9s1.981,19.89,2.063,20.761c.148,1.636,1.254,2.086,2.568,1.369.892-.487,30.808-17.235,32.077-17.962a3.663,3.663,0,0,0,1.8-3.762c-.094-1.115-1.4-20.081-1.469-20.726S1151.705,341.59,1149.574,342.744Zm3.19,21.856a2.664,2.664,0,0,1-1.38,2.725c-.9.5-30.531,16.966-31.215,17.378-1.25.754-1.8.162-1.917-.818-.056-.454-1.671-17.655-1.836-19.24-.193-1.878.02-3.041,1.47-3.823,1.247-.678,31.442-16.478,31.9-16.725.762-.422,1.4-.158,1.5.77C1151.364,345.643,1152.7,363.4,1152.764,364.6Z" transform="translate(-1115.179 -342.353)" fill="#434242"/>
      <path id="Path_20924" data-name="Path 20924" d="M1120.327,356.993s2.9-1.511,3.221-1.694c.487,2.857-.05,9.007-1.671,10.227.053.511.533,5.479.551,5.641a6.816,6.816,0,0,1,1.941-.206c.267.035.592.2.216.416s-4.4,2.444-4.7,2.6-.429.051-.281-.193a13,13,0,0,1,2.167-2.253c-.022-.147-.552-4.989-.622-5.627-2.109-.021-2.883-3.579-3.363-7.595.388-.213,1.954-1.047,1.954-1.047l-.32,2.119.656.236-.67,3.025,1.244-3.153-.744-.416Z" transform="translate(-1113.484 -333.947)" fill="#434242"/>
      <path id="Path_20925" data-name="Path 20925" d="M1124.93,354.716c-.054-.656-.209-1.849-.209-1.849s-.513.915-.808,1.534c-.323.67-.005,1.115.282,1.184S1124.991,355.486,1124.93,354.716Z" transform="translate(-1109.597 -335.526)" fill="#434242"/>
      <path id="Path_20926" data-name="Path 20926" d="M1126.714,353.037c-.052-.656-.211-1.852-.211-1.852s-.511.919-.808,1.537c-.318.673-.007,1.115.284,1.186S1126.775,353.807,1126.714,353.037Z" transform="translate(-1108.439 -336.618)" fill="#434242"/>
      <path id="Path_20927" data-name="Path 20927" d="M1125.915,351.613c-.054-.655-.213-1.849-.213-1.849s-.511.917-.808,1.532c-.32.67-.006,1.115.284,1.189S1125.974,352.385,1125.915,351.613Z" transform="translate(-1108.959 -337.541)" fill="#434242"/>
      <path id="Path_20928" data-name="Path 20928" d="M1127.889,350.527c-.05-.658-.21-1.849-.21-1.849s-.51.914-.807,1.532c-.322.671-.008,1.115.279,1.189S1127.951,351.3,1127.889,350.527Z" transform="translate(-1107.676 -338.246)" fill="#434242"/>
      <path id="Path_20929" data-name="Path 20929" d="M1128.616,351.932c-.051-.656-.208-1.852-.208-1.852s-.513.915-.807,1.534c-.323.67-.011,1.116.281,1.184S1128.679,352.7,1128.616,351.932Z" transform="translate(-1107.203 -337.336)" fill="#434242"/>
      <path id="Path_20930" data-name="Path 20930" d="M1130.119,352.032c-.053-.658-.209-1.852-.209-1.852s-.511.917-.808,1.535c-.32.67,0,1.115.282,1.186S1130.182,352.8,1130.119,352.032Z" transform="translate(-1106.227 -337.271)" fill="#434242"/>
      <path id="Path_20931" data-name="Path 20931" d="M1129.673,349.646c-.051-.658-.209-1.849-.209-1.849s-.511.914-.8,1.532c-.323.671-.01,1.115.28,1.186S1129.734,350.416,1129.673,349.646Z" transform="translate(-1106.516 -338.818)" fill="#434242"/>
      <path id="Path_20932" data-name="Path 20932" d="M1128.671,353.537c-.013-.142-.033-.388-.073-.783s.561-.439.581-.142.055.521.063.653a4.4,4.4,0,0,1,6.122,2.565c-1.407-.567-2.457.534-2.8,2.048-1.011-1.178-2.187-.477-2.868.976.026.374.592,6.688.631,7.212.132,1.849-.937,2.842-1.936,2.944s-1.405-.882-1.445-1.62c-.026-.487.623-.722.714-.026.211,1.608,2.089.628,1.994-1.108-.054-.924-.542-6.6-.582-7.077-1.021-.815-2.545.7-2.716,2.062-1.194-1.173-2.065-.562-3.041,1.121C1124.18,357.857,1126.585,354.805,1128.671,353.537Z" transform="translate(-1109.895 -335.819)" fill="#434242"/>
      <path id="Path_20933" data-name="Path 20933" d="M1132.415,353.175l-1.074.509,1.61-4.362,2.107,2.454-1,.477.807,9.6-1.665.9Z" transform="translate(-1104.686 -337.828)" fill="#434242"/>
      <path id="Path_20934" data-name="Path 20934" d="M1134.957,351.91l-1.013.387,1.453-4.3,2.108,2.451-1.009.483.807,9.6-1.664.9Z" transform="translate(-1102.996 -338.689)" fill="#434242"/>
      <path id="Path_20935" data-name="Path 20935" d="M1131.822,360.094l7.754-4.342.2,1.714L1132,361.833Z" transform="translate(-1104.374 -333.653)" fill="#434242"/>
    </g>
  </g>
</svg>
