<svg xmlns="http://www.w3.org/2000/svg" width="250" height="315" viewBox="0 0 250 315">
  <g id="Group_18733" data-name="Group 18733" transform="translate(-637.036 16.135)">
    <g id="Group_18732" data-name="Group 18732" transform="translate(637.036 -16.135)">
      <path id="Path_19824" data-name="Path 19824" d="M892.446,213.675a3.913,3.913,0,0,1-2.013-.557l-12.07-7.236.731-1.219,12.07,7.236a2.488,2.488,0,0,0,2.539.014l19.645-11.489a.987.987,0,0,0-.03-1.722l-26.181-14.02.67-1.253,26.181,14.02a2.407,2.407,0,0,1,.076,4.2l-19.642,11.488A3.91,3.91,0,0,1,892.446,213.675Z" transform="translate(-665.26 -6.874)" fill="#e8e5ea"/>
      <path id="Path_19825" data-name="Path 19825" d="M832.5,331.143a5.07,5.07,0,0,1-2.471-.64L781.86,303.69a2.215,2.215,0,0,1-.013-3.865l21.8-12.294a.758.758,0,0,0,0-1.315L779.4,272.289a2.178,2.178,0,0,1-.079-3.727l9.908-6.278.76,1.2-9.907,6.278a.757.757,0,0,0,.027,1.3l24.253,13.926a2.179,2.179,0,0,1-.013,3.784l-21.8,12.294a.8.8,0,0,0,.005,1.388l48.168,26.813a3.674,3.674,0,0,0,3.679-.068l18.315-11.26a.339.339,0,0,0,.167-.3.347.347,0,0,0-.168-.3l-13.256-8.059.738-1.213,13.257,8.059a1.769,1.769,0,0,1,.007,3.018l-18.32,11.263A5.087,5.087,0,0,1,832.5,331.143Z" transform="translate(-653.739 -16.143)" fill="#e8e5ea"/>
      <g id="Group_18668" data-name="Group 18668" transform="translate(168.235 119.6)">
        <path id="Path_19826" data-name="Path 19826" d="M859.661,214.484l-23.223-13.407c-1.425-.823-1.246-2.26.4-3.21l22.423-12.946a6.18,6.18,0,0,1,5.56-.23L888.044,198.1c1.425.823,1.246,2.26-.4,3.21l-22.424,12.946A6.179,6.179,0,0,1,859.661,214.484Z" transform="translate(-828.725 -126.432)" fill="#e8e5ea"/>
        <g id="Group_18662" data-name="Group 18662" transform="translate(0 32.069)">
          <path id="Path_19827" data-name="Path 19827" d="M894.9,186.449h0V176.416l-22.5-.013-7.777-4.489a7.738,7.738,0,0,0-6.963.288l-7.255,4.19-22.52-.013V186.7a2.018,2.018,0,0,0,1.2,1.866l29.08,16.789a7.739,7.739,0,0,0,6.963-.289l28.08-16.212A2.756,2.756,0,0,0,894.9,186.449Z" transform="translate(-827.881 -157.065)" fill="#aaa9aa"/>
          <path id="Path_19828" data-name="Path 19828" d="M861.4,171.223a8.042,8.042,0,0,0-3.733.979l-7.255,4.19-22.52-.013V186.7a2.018,2.018,0,0,0,1.2,1.866l29.08,16.789a6.3,6.3,0,0,0,3.232.691Z" transform="translate(-827.881 -157.065)" fill="#aaa9aa"/>
          <path id="Path_19829" data-name="Path 19829" d="M830.439,177.025l-2.548,0v10.32a2.018,2.018,0,0,0,1.2,1.866l1.353.781Z" transform="translate(-827.881 -157.71)" fill="#cecece"/>
          <path id="Path_19830" data-name="Path 19830" d="M862.459,208.4a7.929,7.929,0,0,0,5.566-.064V196.616h-5.566Z" transform="translate(-831.726 -159.889)" fill="#cecece"/>
          <path id="Path_19831" data-name="Path 19831" d="M858.166,193.3l-29.08-16.79c-1.785-1.03-1.561-2.83.5-4.02l28.079-16.212a7.739,7.739,0,0,1,6.963-.288l29.08,16.789c1.785,1.03,1.561,2.83-.5,4.02l-28.08,16.212A7.738,7.738,0,0,1,858.166,193.3Z" transform="translate(-827.881 -155.294)" fill="#fefeff"/>
          <path id="Path_19832" data-name="Path 19832" d="M859.368,190.67,835,176.6c-1.5-.863-1.308-2.371.419-3.368l23.531-13.585a6.485,6.485,0,0,1,5.836-.242l24.369,14.07c1.5.863,1.308,2.371-.419,3.368L865.2,190.427A6.486,6.486,0,0,1,859.368,190.67Z" transform="translate(-828.56 -155.686)" fill="#cecece"/>
          <g id="Group_18661" data-name="Group 18661" transform="translate(53.978 26.83)">
            <path id="Path_19833" data-name="Path 19833" d="M890.961,191.229a2.6,2.6,0,0,1-1.174,2.034c-.649.374-1.175.071-1.175-.678a2.6,2.6,0,0,1,1.175-2.034C890.435,190.177,890.961,190.48,890.961,191.229Z" transform="translate(-888.612 -186.027)" fill="#fefeff"/>
            <path id="Path_19834" data-name="Path 19834" d="M895.213,188.774a2.6,2.6,0,0,1-1.175,2.034c-.648.375-1.174.071-1.174-.678a2.6,2.6,0,0,1,1.174-2.034C894.687,187.722,895.213,188.025,895.213,188.774Z" transform="translate(-889.085 -185.754)" fill="#fefeff"/>
            <path id="Path_19835" data-name="Path 19835" d="M899.465,186.319a2.6,2.6,0,0,1-1.175,2.034c-.649.375-1.174.071-1.174-.678a2.6,2.6,0,0,1,1.174-2.034C898.939,185.267,899.465,185.571,899.465,186.319Z" transform="translate(-889.558 -185.481)" fill="#fefeff"/>
          </g>
        </g>
        <g id="Group_18664" data-name="Group 18664" transform="translate(0 16.035)">
          <path id="Path_19836" data-name="Path 19836" d="M894.9,168.408h0V158.375l-22.5-.013-7.777-4.489a7.739,7.739,0,0,0-6.963.288l-7.255,4.19-22.52-.012v10.319a2.018,2.018,0,0,0,1.2,1.866l29.08,16.789a7.736,7.736,0,0,0,6.963-.289l28.08-16.212A2.756,2.756,0,0,0,894.9,168.408Z" transform="translate(-827.881 -139.024)" fill="#aaa9aa"/>
          <path id="Path_19837" data-name="Path 19837" d="M861.4,153.182a8.042,8.042,0,0,0-3.733.979l-7.255,4.19-22.52-.012v10.319a2.018,2.018,0,0,0,1.2,1.866l29.08,16.789A6.3,6.3,0,0,0,861.4,188Z" transform="translate(-827.881 -139.024)" fill="#aaa9aa"/>
          <path id="Path_19838" data-name="Path 19838" d="M830.439,158.984H827.89V169.3a2.018,2.018,0,0,0,1.2,1.866l1.353.781Z" transform="translate(-827.881 -139.67)" fill="#cecece"/>
          <path id="Path_19839" data-name="Path 19839" d="M862.459,190.355a7.929,7.929,0,0,0,5.566-.064V178.575h-5.566Z" transform="translate(-831.726 -141.848)" fill="#cecece"/>
          <path id="Path_19840" data-name="Path 19840" d="M858.166,175.259l-29.08-16.79c-1.785-1.03-1.561-2.83.5-4.02l28.079-16.212a7.739,7.739,0,0,1,6.963-.288l29.08,16.789c1.785,1.03,1.561,2.83-.5,4.02l-28.08,16.211A7.739,7.739,0,0,1,858.166,175.259Z" transform="translate(-827.881 -137.253)" fill="#fefeff"/>
          <path id="Path_19841" data-name="Path 19841" d="M859.368,172.629,835,158.558c-1.5-.863-1.308-2.371.419-3.368L858.948,141.6a6.485,6.485,0,0,1,5.836-.242l24.369,14.07c1.5.863,1.308,2.371-.419,3.369L865.2,172.386A6.487,6.487,0,0,1,859.368,172.629Z" transform="translate(-828.56 -137.645)" fill="#cecece"/>
          <g id="Group_18663" data-name="Group 18663" transform="translate(53.978 26.83)">
            <path id="Path_19842" data-name="Path 19842" d="M890.961,173.188a2.6,2.6,0,0,1-1.174,2.034c-.649.374-1.175.071-1.175-.678a2.6,2.6,0,0,1,1.175-2.034C890.435,172.136,890.961,172.439,890.961,173.188Z" transform="translate(-888.612 -167.986)" fill="#fefeff"/>
            <path id="Path_19843" data-name="Path 19843" d="M895.213,170.733a2.6,2.6,0,0,1-1.175,2.034c-.648.375-1.174.071-1.174-.678a2.6,2.6,0,0,1,1.174-2.034C894.687,169.681,895.213,169.985,895.213,170.733Z" transform="translate(-889.085 -167.713)" fill="#fefeff"/>
            <path id="Path_19844" data-name="Path 19844" d="M899.465,168.278a2.6,2.6,0,0,1-1.175,2.034c-.649.375-1.174.071-1.174-.678a2.594,2.594,0,0,1,1.174-2.034C898.939,167.226,899.465,167.53,899.465,168.278Z" transform="translate(-889.558 -167.44)" fill="#fefeff"/>
          </g>
        </g>
        <g id="Group_18667" data-name="Group 18667">
          <path id="Path_19845" data-name="Path 19845" d="M894.9,150.367h0V140.334l-22.5-.012-7.777-4.49a7.736,7.736,0,0,0-6.963.289l-7.255,4.189-22.52-.012v10.319a2.018,2.018,0,0,0,1.2,1.866l29.08,16.789a7.736,7.736,0,0,0,6.963-.289l28.08-16.212A2.756,2.756,0,0,0,894.9,150.367Z" transform="translate(-827.881 -120.983)" fill="#aaa9aa"/>
          <path id="Path_19846" data-name="Path 19846" d="M861.4,135.141a8.033,8.033,0,0,0-3.733.979l-7.255,4.189-22.52-.012v10.319a2.018,2.018,0,0,0,1.2,1.866l29.08,16.789a6.3,6.3,0,0,0,3.232.691Z" transform="translate(-827.881 -120.983)" fill="#aaa9aa"/>
          <path id="Path_19847" data-name="Path 19847" d="M830.439,140.943H827.89v10.319a2.018,2.018,0,0,0,1.2,1.866l1.353.781Z" transform="translate(-827.881 -121.629)" fill="#cecece"/>
          <path id="Path_19848" data-name="Path 19848" d="M862.459,172.314a7.933,7.933,0,0,0,5.566-.063V160.534h-5.566Z" transform="translate(-831.726 -123.807)" fill="#cecece"/>
          <path id="Path_19849" data-name="Path 19849" d="M858.166,157.218l-29.08-16.79c-1.785-1.03-1.561-2.83.5-4.02L857.664,120.2a7.739,7.739,0,0,1,6.963-.288l29.08,16.789c1.785,1.03,1.561,2.83-.5,4.02l-28.08,16.212A7.739,7.739,0,0,1,858.166,157.218Z" transform="translate(-827.881 -119.212)" fill="#0f57fb"/>
          <path id="Path_19850" data-name="Path 19850" d="M893.208,141.029l-28.08,16.212a7.739,7.739,0,0,1-6.963.289l-29.08-16.789a2.694,2.694,0,0,1-.89-.79,1.87,1.87,0,0,0,.89,2.764l29.08,16.79a7.739,7.739,0,0,0,6.963-.289L893.208,143c1.6-.924,2.088-2.216,1.39-3.23A3.9,3.9,0,0,1,893.208,141.029Z" transform="translate(-827.881 -121.499)" fill="#fff"/>
          <g id="Group_18665" data-name="Group 18665" transform="translate(53.978 26.83)">
            <path id="Path_19851" data-name="Path 19851" d="M890.961,155.147a2.6,2.6,0,0,1-1.174,2.034c-.649.374-1.175.071-1.175-.678a2.6,2.6,0,0,1,1.175-2.034C890.435,154.095,890.961,154.4,890.961,155.147Z" transform="translate(-888.612 -149.945)" fill="#fefeff"/>
            <path id="Path_19852" data-name="Path 19852" d="M895.213,152.692a2.6,2.6,0,0,1-1.175,2.034c-.648.375-1.174.071-1.174-.678a2.6,2.6,0,0,1,1.174-2.034C894.687,151.64,895.213,151.944,895.213,152.692Z" transform="translate(-889.085 -149.672)" fill="#fefeff"/>
            <path id="Path_19853" data-name="Path 19853" d="M899.465,150.237a2.6,2.6,0,0,1-1.175,2.034c-.649.375-1.174.071-1.174-.678a2.594,2.594,0,0,1,1.174-2.033C898.939,149.185,899.465,149.489,899.465,150.237Z" transform="translate(-889.558 -149.399)" fill="#fefeff"/>
          </g>
          <g id="Group_18666" data-name="Group 18666" transform="translate(17.833 9.811)">
            <path id="Path_19854" data-name="Path 19854" d="M862.116,148.036l-13.607-7.857c-.835-.482-.73-1.324.234-1.881l13.14-7.587a3.624,3.624,0,0,1,3.258-.135l13.607,7.857c.836.483.731,1.324-.234,1.882l-13.14,7.586A3.619,3.619,0,0,1,862.116,148.036Z" transform="translate(-847.945 -130.251)" fill="#cecece"/>
            <path id="Path_19855" data-name="Path 19855" d="M865.11,142.552l-1.883-1.087c-.115-.067-.1-.184.032-.26l1.818-1.05a.5.5,0,0,1,.451-.019l1.882,1.087c.116.067.1.183-.032.26l-1.818,1.05A.5.5,0,0,1,865.11,142.552Z" transform="translate(-849.635 -131.345)" fill="#fefeff"/>
            <path id="Path_19856" data-name="Path 19856" d="M848.508,140.179l.038.022a2.285,2.285,0,0,1,.2-.134l13.14-7.586a3.618,3.618,0,0,1,3.258-.135l13.569,7.834c.77-.551.811-1.3.038-1.746l-13.607-7.857a3.624,3.624,0,0,0-3.258.135l-13.14,7.587C847.778,138.855,847.673,139.7,848.508,140.179Z" transform="translate(-847.945 -130.251)" fill="#aaa9aa"/>
          </g>
        </g>
      </g>
      <g id="Group_18688" data-name="Group 18688" transform="translate(92.737 74.283)">
        <g id="Group_18680" data-name="Group 18680">
          <g id="Group_18671" data-name="Group 18671">
            <path id="Path_19857" data-name="Path 19857" d="M797.4,266.1l-50.192-28.62c-1.835-1.059-1.605-2.911.514-4.135l28.88-16.673a7.959,7.959,0,0,1,7.161-.3L833.951,245c1.836,1.059,1.605,2.911-.515,4.134l-28.879,16.674A7.959,7.959,0,0,1,797.4,266.1Z" transform="translate(-742.72 -84.662)" fill="#e8e5ea"/>
            <path id="Path_19858" data-name="Path 19858" d="M838.021,220.926h0V103.752L791.439,91.56l-8.58-4.954c-1.97-1.137-5.409-.995-7.683.318l-8.005,4.622-24.845-.013,7.357,113.115A2.225,2.225,0,0,0,751,206.706l46.486,35.076c1.969,1.137,5.408.994,7.682-.319l30.981-17.886C837.462,222.82,838.095,221.839,838.021,220.926Z" transform="translate(-742.315 -70.224)" fill="#aaa9aa"/>
            <path id="Path_19859" data-name="Path 19859" d="M779.293,85.845a8.861,8.861,0,0,0-4.118,1.08l-8.005,4.622-24.845-.013V209.022a2.228,2.228,0,0,0,1.319,2.058l53.844,30.7a6.962,6.962,0,0,0,3.565.762l.555-118.224Z" transform="translate(-742.314 -70.225)" fill="#fefeff"/>
            <path id="Path_19860" data-name="Path 19860" d="M804.946,246.664a8.751,8.751,0,0,0,6.141-.07V127.563h-6.141Z" transform="translate(-749.279 -74.864)" fill="#cecece"/>
            <path id="Path_19861" data-name="Path 19861" d="M797.486,122.38l-53.844-30.7c-1.969-1.137-1.723-3.123.552-4.436l30.98-17.886c2.274-1.313,5.713-1.455,7.683-.318l53.844,30.7c1.969,1.137,1.722,3.123-.552,4.436l-30.98,17.886C802.895,123.374,799.455,123.517,797.486,122.38Z" transform="translate(-742.313 -68.27)" fill="#0f57fb"/>
            <path id="Path_19862" data-name="Path 19862" d="M836.149,104.544,805.168,122.43c-2.274,1.313-5.713,1.455-7.682.318l-53.844-30.7a2.962,2.962,0,0,1-.982-.872c-.677,1.089-.37,2.269.982,3.05l53.844,30.7c1.969,1.138,5.408.995,7.682-.318l30.981-17.886c1.767-1.02,2.3-2.445,1.534-3.564A4.3,4.3,0,0,1,836.149,104.544Z" transform="translate(-742.314 -70.818)" fill="#fff"/>
            <g id="Group_18670" data-name="Group 18670" transform="translate(20.226 9.933)">
              <path id="Path_19863" data-name="Path 19863" d="M801.54,111.18,765.692,90.4c-.922-.532-.806-1.462.259-2.076l14.5-8.37a4,4,0,0,1,3.6-.149l35.848,20.78c.921.532.805,1.461-.259,2.076l-14.5,8.37A4,4,0,0,1,801.54,111.18Z" transform="translate(-765.07 -79.446)" fill="#7a7a7a"/>
              <g id="Group_18669" data-name="Group 18669" transform="translate(14.954 9.172)">
                <path id="Path_19864" data-name="Path 19864" d="M784.058,92.481l-2.077-1.2c-.128-.074-.112-.2.036-.287l2.005-1.158a.555.555,0,0,1,.5-.02l2.077,1.2c.128.074.112.2-.036.288l-2.006,1.157A.553.553,0,0,1,784.058,92.481Z" transform="translate(-781.895 -89.766)" fill="#fefeff"/>
                <path id="Path_19865" data-name="Path 19865" d="M791.866,96.97l-2.077-1.2c-.128-.074-.112-.2.036-.287l2.006-1.158a.55.55,0,0,1,.5-.02l2.077,1.2c.128.074.112.2-.036.287l-2.006,1.158A.55.55,0,0,1,791.866,96.97Z" transform="translate(-782.763 -90.265)" fill="#fefeff"/>
                <path id="Path_19866" data-name="Path 19866" d="M799.674,101.46l-2.077-1.2c-.128-.074-.112-.2.036-.287l2.006-1.158a.553.553,0,0,1,.5-.021l2.078,1.2c.127.074.111.2-.037.287l-2,1.158A.554.554,0,0,1,799.674,101.46Z" transform="translate(-783.631 -90.765)" fill="#fefeff"/>
                <path id="Path_19867" data-name="Path 19867" d="M807.482,105.95l-2.077-1.2c-.128-.074-.112-.2.036-.287l2.006-1.158a.553.553,0,0,1,.5-.02l2.078,1.2c.127.074.111.2-.036.288l-2.005,1.157A.555.555,0,0,1,807.482,105.95Z" transform="translate(-784.5 -91.264)" fill="#fefeff"/>
              </g>
              <path id="Path_19868" data-name="Path 19868" d="M765.692,90.4l.043.024c.07-.05.135-.1.216-.148l14.5-8.37a4,4,0,0,1,3.6-.149l35.805,20.756c.85-.608.894-1.436.043-1.928l-35.848-20.78a4,4,0,0,0-3.6.149l-14.5,8.37C764.886,88.938,764.77,89.868,765.692,90.4Z" transform="translate(-765.07 -79.446)" fill="#cecece"/>
            </g>
          </g>
          <g id="Group_18673" data-name="Group 18673" transform="translate(66.828 52.579)">
            <path id="Path_19869" data-name="Path 19869" d="M819.579,152.174l20.382-11.67a4.971,4.971,0,0,0,2.077-3.968v-7.289c0-1.53-.93-2.232-2.077-1.57l-20.382,11.67a4.973,4.973,0,0,0-2.076,3.967V150.6C817.5,152.133,818.433,152.836,819.579,152.174Z" transform="translate(-817.503 -127.428)" fill="#7a7a7a"/>
            <path id="Path_19870" data-name="Path 19870" d="M841.036,127.461a2.038,2.038,0,0,1,.521,1.517v7.288a4.973,4.973,0,0,1-2.077,3.968L819.1,151.9a1.5,1.5,0,0,1-1.009.22,1.238,1.238,0,0,0,1.555.053l20.382-11.67a4.973,4.973,0,0,0,2.077-3.968v-7.289C842.1,128.213,841.669,127.569,841.036,127.461Z" transform="translate(-817.568 -127.432)" fill="#fff"/>
            <g id="Group_18672" data-name="Group 18672" transform="translate(7.754 8.88)">
              <path id="Path_19871" data-name="Path 19871" d="M826.68,145.819l1.869-1.08a1.085,1.085,0,0,0,.453-.865v-2c0-.333-.2-.486-.453-.342l-1.869,1.08a1.082,1.082,0,0,0-.453.865v2C826.227,145.81,826.43,145.963,826.68,145.819Z" transform="translate(-826.227 -137.872)" fill="#aaa9aa"/>
              <path id="Path_19872" data-name="Path 19872" d="M833.714,141.758l1.869-1.08a1.083,1.083,0,0,0,.452-.865v-2c0-.333-.2-.486-.452-.342l-1.869,1.08a1.083,1.083,0,0,0-.453.865v2C833.261,141.749,833.464,141.9,833.714,141.758Z" transform="translate(-827.009 -137.42)" fill="#fff"/>
            </g>
          </g>
          <g id="Group_18675" data-name="Group 18675" transform="translate(66.828 105.249)">
            <path id="Path_19873" data-name="Path 19873" d="M819.579,211.434l20.382-11.669a4.973,4.973,0,0,0,2.077-3.968v-7.289c0-1.529-.93-2.232-2.077-1.57l-20.382,11.67a4.974,4.974,0,0,0-2.076,3.968v7.289C817.5,211.394,818.433,212.1,819.579,211.434Z" transform="translate(-817.503 -186.689)" fill="#7a7a7a"/>
            <path id="Path_19874" data-name="Path 19874" d="M841.036,186.722a2.035,2.035,0,0,1,.521,1.516v7.289a4.973,4.973,0,0,1-2.077,3.968L819.1,211.165a1.494,1.494,0,0,1-1.009.22,1.238,1.238,0,0,0,1.555.053l20.382-11.669A4.973,4.973,0,0,0,842.1,195.8v-7.289C842.1,187.473,841.669,186.83,841.036,186.722Z" transform="translate(-817.568 -186.692)" fill="#fff"/>
            <g id="Group_18674" data-name="Group 18674" transform="translate(7.754 8.88)">
              <path id="Path_19875" data-name="Path 19875" d="M826.68,205.079l1.869-1.08a1.085,1.085,0,0,0,.453-.865v-2c0-.333-.2-.486-.453-.342l-1.869,1.08a1.082,1.082,0,0,0-.453.865v2C826.227,205.07,826.43,205.223,826.68,205.079Z" transform="translate(-826.227 -197.132)" fill="#aaa9aa"/>
              <path id="Path_19876" data-name="Path 19876" d="M833.714,201.018l1.869-1.08a1.083,1.083,0,0,0,.452-.865v-2c0-.333-.2-.486-.452-.342l-1.869,1.08a1.083,1.083,0,0,0-.453.865v2C833.261,201.009,833.464,201.162,833.714,201.018Z" transform="translate(-827.009 -196.68)" fill="#aaa9aa"/>
            </g>
          </g>
          <g id="Group_18677" data-name="Group 18677" transform="translate(66.828 131.584)">
            <path id="Path_19877" data-name="Path 19877" d="M819.579,241.065l20.382-11.67a4.973,4.973,0,0,0,2.077-3.968v-7.289c0-1.529-.93-2.232-2.077-1.57l-20.382,11.67a4.974,4.974,0,0,0-2.076,3.968v7.289C817.5,241.024,818.433,241.727,819.579,241.065Z" transform="translate(-817.503 -216.319)" fill="#7a7a7a"/>
            <path id="Path_19878" data-name="Path 19878" d="M841.036,216.352a2.035,2.035,0,0,1,.521,1.516v7.289a4.973,4.973,0,0,1-2.077,3.968L819.1,240.795a1.494,1.494,0,0,1-1.009.22,1.239,1.239,0,0,0,1.555.054l20.382-11.67a4.973,4.973,0,0,0,2.077-3.969v-7.289C842.1,217.1,841.669,216.46,841.036,216.352Z" transform="translate(-817.568 -216.322)" fill="#fff"/>
            <g id="Group_18676" data-name="Group 18676" transform="translate(7.754 8.88)">
              <path id="Path_19879" data-name="Path 19879" d="M826.68,234.709l1.869-1.08a1.085,1.085,0,0,0,.453-.865v-2c0-.333-.2-.486-.453-.342l-1.869,1.08a1.082,1.082,0,0,0-.453.865v2C826.227,234.7,826.43,234.853,826.68,234.709Z" transform="translate(-826.227 -226.762)" fill="#fff"/>
              <path id="Path_19880" data-name="Path 19880" d="M833.714,230.648l1.869-1.08a1.083,1.083,0,0,0,.452-.865v-2c0-.333-.2-.486-.452-.342l-1.869,1.08a1.083,1.083,0,0,0-.453.865v2C833.261,230.639,833.464,230.792,833.714,230.648Z" transform="translate(-827.009 -226.31)" fill="#aaa9aa"/>
            </g>
          </g>
          <g id="Group_18679" data-name="Group 18679" transform="translate(66.828 78.914)">
            <path id="Path_19881" data-name="Path 19881" d="M819.579,181.8l20.382-11.669a4.974,4.974,0,0,0,2.077-3.968v-7.289c0-1.529-.93-2.232-2.077-1.57l-20.382,11.67a4.974,4.974,0,0,0-2.076,3.968v7.289C817.5,181.764,818.433,182.466,819.579,181.8Z" transform="translate(-817.503 -157.059)" fill="#7a7a7a"/>
            <path id="Path_19882" data-name="Path 19882" d="M841.036,157.092a2.035,2.035,0,0,1,.521,1.516V165.9a4.973,4.973,0,0,1-2.077,3.968L819.1,181.535a1.5,1.5,0,0,1-1.009.22,1.238,1.238,0,0,0,1.555.053l20.382-11.67a4.97,4.97,0,0,0,2.077-3.968v-7.289C842.1,157.843,841.669,157.2,841.036,157.092Z" transform="translate(-817.568 -157.062)" fill="#fff"/>
            <g id="Group_18678" data-name="Group 18678" transform="translate(7.754 8.88)">
              <path id="Path_19883" data-name="Path 19883" d="M826.68,175.449l1.869-1.08A1.084,1.084,0,0,0,829,173.5v-2c0-.333-.2-.486-.453-.342l-1.869,1.08a1.082,1.082,0,0,0-.453.865v2C826.227,175.44,826.43,175.593,826.68,175.449Z" transform="translate(-826.227 -167.502)" fill="#fff"/>
              <path id="Path_19884" data-name="Path 19884" d="M833.714,171.388l1.869-1.08a1.084,1.084,0,0,0,.452-.865v-2c0-.333-.2-.486-.452-.342l-1.869,1.08a1.083,1.083,0,0,0-.453.865v2C833.261,171.379,833.464,171.532,833.714,171.388Z" transform="translate(-827.009 -167.05)" fill="#fff"/>
            </g>
          </g>
        </g>
        <g id="Group_18681" data-name="Group 18681" transform="translate(2.322 28.438)">
          <path id="Path_19885" data-name="Path 19885" d="M793.855,141.692l-47.023-27.148a4.565,4.565,0,0,1-1.905-3.641v-8.966c0-1.4.853-2.049,1.905-1.441l47.023,27.148a4.565,4.565,0,0,1,1.905,3.641v8.966C795.76,141.654,794.907,142.3,793.855,141.692Z" transform="translate(-744.926 -100.267)" fill="#cecece"/>
          <path id="Path_19886" data-name="Path 19886" d="M792.791,138.955l-44.323-25.59a2.314,2.314,0,0,1-.967-1.847v-6.741c0-.712.433-1.039.967-.731l44.323,25.59a2.315,2.315,0,0,1,.967,1.847v6.741C793.758,138.937,793.325,139.264,792.791,138.955Z" transform="translate(-745.212 -100.674)" fill="#fefeff" opacity="0.4"/>
          <path id="Path_19887" data-name="Path 19887" d="M758.037,115.907l-6.615-3.819a2.247,2.247,0,0,1-.939-1.794h0c0-.691.42-1.009.939-.71l6.615,3.819a2.25,2.25,0,0,1,.938,1.794h0C758.975,115.889,758.555,116.206,758.037,115.907Z" transform="translate(-745.544 -101.29)" fill="#fefeff"/>
          <path id="Path_19888" data-name="Path 19888" d="M765.053,118.712c0,.691-.485.972-1.084.627a2.4,2.4,0,0,1-1.084-1.878c0-.691.485-.971,1.084-.626A2.4,2.4,0,0,1,765.053,118.712Z" transform="translate(-746.923 -102.093)" fill="#7a7a7a"/>
          <path id="Path_19889" data-name="Path 19889" d="M769.356,121.2c0,.691-.485.971-1.084.626a2.4,2.4,0,0,1-1.084-1.878c0-.691.486-.971,1.084-.626A2.4,2.4,0,0,1,769.356,121.2Z" transform="translate(-747.402 -102.369)" fill="#7a7a7a"/>
          <path id="Path_19890" data-name="Path 19890" d="M773.659,123.681c0,.691-.485.971-1.084.626a2.394,2.394,0,0,1-1.083-1.877c0-.691.485-.971,1.083-.626A2.4,2.4,0,0,1,773.659,123.681Z" transform="translate(-747.88 -102.645)" fill="#fefeff"/>
          <path id="Path_19891" data-name="Path 19891" d="M777.962,126.165c0,.691-.485.971-1.083.626a2.4,2.4,0,0,1-1.084-1.878c0-.691.485-.971,1.084-.626A2.4,2.4,0,0,1,777.962,126.165Z" transform="translate(-748.359 -102.921)" fill="#7a7a7a"/>
          <path id="Path_19892" data-name="Path 19892" d="M796.007,138.449l-2.228-1.287a1.441,1.441,0,0,1-.6-1.151v-2.357c0-.444.269-.648.6-.456l2.228,1.286a1.447,1.447,0,0,1,.6,1.152v2.357C796.609,138.437,796.339,138.641,796.007,138.449Z" transform="translate(-750.292 -103.921)" fill="#7a7a7a"/>
        </g>
        <g id="Group_18682" data-name="Group 18682" transform="translate(2.322 44.249)">
          <path id="Path_19893" data-name="Path 19893" d="M793.855,159.482l-47.023-27.148a4.565,4.565,0,0,1-1.905-3.641v-8.966c0-1.4.853-2.049,1.905-1.441l47.023,27.148a4.565,4.565,0,0,1,1.905,3.641v8.966C795.76,159.444,794.907,160.09,793.855,159.482Z" transform="translate(-744.926 -118.057)" fill="#cecece"/>
          <path id="Path_19894" data-name="Path 19894" d="M792.791,156.745l-44.323-25.59a2.314,2.314,0,0,1-.967-1.847v-6.741c0-.712.433-1.039.967-.731l44.323,25.59a2.314,2.314,0,0,1,.967,1.847v6.741C793.758,156.727,793.325,157.054,792.791,156.745Z" transform="translate(-745.212 -118.464)" fill="#fefeff" opacity="0.4"/>
          <path id="Path_19895" data-name="Path 19895" d="M758.037,133.7l-6.615-3.819a2.249,2.249,0,0,1-.939-1.794h0c0-.691.42-1.009.939-.71l6.615,3.819a2.25,2.25,0,0,1,.938,1.794h0C758.975,133.678,758.555,134,758.037,133.7Z" transform="translate(-745.544 -119.08)" fill="#fefeff"/>
          <path id="Path_19896" data-name="Path 19896" d="M765.053,136.5c0,.691-.485.971-1.084.627a2.4,2.4,0,0,1-1.084-1.878c0-.691.485-.971,1.084-.626A2.394,2.394,0,0,1,765.053,136.5Z" transform="translate(-746.923 -119.883)" fill="#fff"/>
          <path id="Path_19897" data-name="Path 19897" d="M769.356,138.986c0,.691-.485.971-1.084.626a2.4,2.4,0,0,1-1.084-1.878c0-.691.486-.971,1.084-.626A2.4,2.4,0,0,1,769.356,138.986Z" transform="translate(-747.402 -120.159)" fill="#7a7a7a"/>
          <path id="Path_19898" data-name="Path 19898" d="M773.659,141.471c0,.691-.485.971-1.084.626a2.4,2.4,0,0,1-1.083-1.877c0-.691.485-.971,1.083-.626A2.393,2.393,0,0,1,773.659,141.471Z" transform="translate(-747.88 -120.435)" fill="#fefeff"/>
          <path id="Path_19899" data-name="Path 19899" d="M777.962,143.955c0,.691-.485.971-1.083.626a2.4,2.4,0,0,1-1.084-1.878c0-.691.485-.971,1.084-.626A2.4,2.4,0,0,1,777.962,143.955Z" transform="translate(-748.359 -120.711)" fill="#7a7a7a"/>
          <path id="Path_19900" data-name="Path 19900" d="M796.007,156.239l-2.228-1.287a1.441,1.441,0,0,1-.6-1.151v-2.357c0-.444.269-.648.6-.456l2.228,1.286a1.446,1.446,0,0,1,.6,1.152v2.357C796.609,156.227,796.339,156.431,796.007,156.239Z" transform="translate(-750.292 -121.711)" fill="#7a7a7a"/>
        </g>
        <g id="Group_18683" data-name="Group 18683" transform="translate(2.322 60.061)">
          <path id="Path_19901" data-name="Path 19901" d="M793.855,177.272l-47.023-27.148a4.565,4.565,0,0,1-1.905-3.641v-8.967c0-1.4.853-2.048,1.905-1.44l47.023,27.148a4.565,4.565,0,0,1,1.905,3.641v8.966C795.76,177.234,794.907,177.88,793.855,177.272Z" transform="translate(-744.926 -135.847)" fill="#cecece"/>
          <path id="Path_19902" data-name="Path 19902" d="M792.791,174.535l-44.323-25.59a2.314,2.314,0,0,1-.967-1.847v-6.741c0-.712.433-1.039.967-.731l44.323,25.59a2.315,2.315,0,0,1,.967,1.847V173.8C793.758,174.517,793.325,174.844,792.791,174.535Z" transform="translate(-745.212 -136.254)" fill="#fefeff" opacity="0.4"/>
          <path id="Path_19903" data-name="Path 19903" d="M758.037,151.487l-6.615-3.819a2.249,2.249,0,0,1-.939-1.794h0c0-.691.42-1.01.939-.71l6.615,3.819a2.25,2.25,0,0,1,.938,1.794h0C758.975,151.468,758.555,151.786,758.037,151.487Z" transform="translate(-745.544 -136.87)" fill="#fefeff"/>
          <path id="Path_19904" data-name="Path 19904" d="M765.053,154.292c0,.691-.485.971-1.084.626a2.393,2.393,0,0,1-1.084-1.877c0-.691.485-.971,1.084-.626A2.394,2.394,0,0,1,765.053,154.292Z" transform="translate(-746.923 -137.673)" fill="#fff"/>
          <path id="Path_19905" data-name="Path 19905" d="M769.356,156.776c0,.691-.485.971-1.084.626a2.4,2.4,0,0,1-1.084-1.878c0-.691.486-.971,1.084-.626A2.4,2.4,0,0,1,769.356,156.776Z" transform="translate(-747.402 -137.949)" fill="#7a7a7a"/>
          <path id="Path_19906" data-name="Path 19906" d="M773.659,159.261c0,.691-.485.971-1.084.626a2.4,2.4,0,0,1-1.083-1.877c0-.691.485-.971,1.083-.627A2.4,2.4,0,0,1,773.659,159.261Z" transform="translate(-747.88 -138.225)" fill="#fefeff"/>
          <path id="Path_19907" data-name="Path 19907" d="M777.962,161.745c0,.691-.485.971-1.083.626a2.4,2.4,0,0,1-1.084-1.878c0-.691.485-.971,1.084-.626A2.4,2.4,0,0,1,777.962,161.745Z" transform="translate(-748.359 -138.501)" fill="#7a7a7a"/>
          <path id="Path_19908" data-name="Path 19908" d="M796.007,174.028l-2.228-1.286a1.441,1.441,0,0,1-.6-1.151v-2.357c0-.444.269-.648.6-.456l2.228,1.286a1.446,1.446,0,0,1,.6,1.152v2.357C796.609,174.016,796.339,174.221,796.007,174.028Z" transform="translate(-750.292 -139.501)" fill="#7a7a7a"/>
        </g>
        <g id="Group_18684" data-name="Group 18684" transform="translate(2.322 75.872)">
          <path id="Path_19909" data-name="Path 19909" d="M793.855,195.062l-47.023-27.148a4.565,4.565,0,0,1-1.905-3.641v-8.967c0-1.4.853-2.048,1.905-1.441l47.023,27.149a4.565,4.565,0,0,1,1.905,3.641v8.966C795.76,195.024,794.907,195.67,793.855,195.062Z" transform="translate(-744.926 -153.636)" fill="#cecece"/>
          <path id="Path_19910" data-name="Path 19910" d="M792.791,192.326l-44.323-25.59a2.315,2.315,0,0,1-.967-1.848v-6.741c0-.712.433-1.039.967-.731l44.323,25.59a2.314,2.314,0,0,1,.967,1.847v6.741C793.758,192.307,793.325,192.634,792.791,192.326Z" transform="translate(-745.212 -154.044)" fill="#fefeff" opacity="0.4"/>
          <path id="Path_19911" data-name="Path 19911" d="M758.037,169.277l-6.615-3.819a2.249,2.249,0,0,1-.939-1.794h0c0-.691.42-1.01.939-.71l6.615,3.819a2.25,2.25,0,0,1,.938,1.794h0C758.975,169.258,758.555,169.576,758.037,169.277Z" transform="translate(-745.544 -154.66)" fill="#fefeff"/>
          <path id="Path_19912" data-name="Path 19912" d="M765.053,172.082c0,.691-.485.971-1.084.626a2.394,2.394,0,0,1-1.084-1.877c0-.691.485-.971,1.084-.626A2.393,2.393,0,0,1,765.053,172.082Z" transform="translate(-746.923 -155.462)" fill="#7a7a7a"/>
          <path id="Path_19913" data-name="Path 19913" d="M769.356,174.566c0,.691-.485.971-1.084.626a2.4,2.4,0,0,1-1.084-1.878c0-.691.486-.971,1.084-.626A2.4,2.4,0,0,1,769.356,174.566Z" transform="translate(-747.402 -155.738)" fill="#7a7a7a"/>
          <path id="Path_19914" data-name="Path 19914" d="M773.659,177.051c0,.691-.485.971-1.084.626a2.4,2.4,0,0,1-1.083-1.877c0-.691.485-.972,1.083-.627A2.4,2.4,0,0,1,773.659,177.051Z" transform="translate(-747.88 -156.015)" fill="#fefeff"/>
          <path id="Path_19915" data-name="Path 19915" d="M777.962,179.535c0,.691-.485.971-1.083.626a2.4,2.4,0,0,1-1.084-1.878c0-.691.485-.971,1.084-.626A2.4,2.4,0,0,1,777.962,179.535Z" transform="translate(-748.359 -156.291)" fill="#7a7a7a"/>
          <path id="Path_19916" data-name="Path 19916" d="M796.007,191.818l-2.228-1.286a1.441,1.441,0,0,1-.6-1.151v-2.358c0-.443.269-.647.6-.455l2.228,1.286a1.444,1.444,0,0,1,.6,1.152v2.357C796.609,191.806,796.339,192.011,796.007,191.818Z" transform="translate(-750.292 -157.29)" fill="#fefeff"/>
        </g>
        <g id="Group_18685" data-name="Group 18685" transform="translate(2.322 91.684)">
          <path id="Path_19917" data-name="Path 19917" d="M793.855,212.852,746.832,185.7a4.562,4.562,0,0,1-1.905-3.641V173.1c0-1.4.853-2.048,1.905-1.441L793.855,198.8a4.565,4.565,0,0,1,1.905,3.641v8.966C795.76,212.814,794.907,213.46,793.855,212.852Z" transform="translate(-744.926 -171.426)" fill="#cecece"/>
          <path id="Path_19918" data-name="Path 19918" d="M792.791,210.115l-44.323-25.59a2.316,2.316,0,0,1-.967-1.848v-6.741c0-.712.433-1.039.967-.731l44.323,25.59a2.314,2.314,0,0,1,.967,1.847v6.741C793.758,210.1,793.325,210.424,792.791,210.115Z" transform="translate(-745.212 -171.833)" fill="#fefeff" opacity="0.4"/>
          <path id="Path_19919" data-name="Path 19919" d="M758.037,187.067l-6.615-3.819a2.249,2.249,0,0,1-.939-1.794h0c0-.691.42-1.01.939-.71l6.615,3.819a2.25,2.25,0,0,1,.938,1.794h0C758.975,187.048,758.555,187.366,758.037,187.067Z" transform="translate(-745.544 -172.45)" fill="#fefeff"/>
          <path id="Path_19920" data-name="Path 19920" d="M765.053,189.872c0,.691-.485.971-1.084.626a2.394,2.394,0,0,1-1.084-1.877c0-.691.485-.972,1.084-.627A2.4,2.4,0,0,1,765.053,189.872Z" transform="translate(-746.923 -173.252)" fill="#7a7a7a"/>
          <path id="Path_19921" data-name="Path 19921" d="M769.356,192.356c0,.691-.485.971-1.084.626a2.4,2.4,0,0,1-1.084-1.878c0-.691.486-.971,1.084-.626A2.4,2.4,0,0,1,769.356,192.356Z" transform="translate(-747.402 -173.528)" fill="#fff"/>
          <path id="Path_19922" data-name="Path 19922" d="M773.659,194.841c0,.691-.485.971-1.084.626a2.4,2.4,0,0,1-1.083-1.877c0-.691.485-.972,1.083-.627A2.4,2.4,0,0,1,773.659,194.841Z" transform="translate(-747.88 -173.805)" fill="#fefeff"/>
          <path id="Path_19923" data-name="Path 19923" d="M777.962,197.325c0,.691-.485.972-1.083.627a2.4,2.4,0,0,1-1.084-1.878c0-.691.485-.971,1.084-.626A2.4,2.4,0,0,1,777.962,197.325Z" transform="translate(-748.359 -174.081)" fill="#fff"/>
          <path id="Path_19924" data-name="Path 19924" d="M796.007,209.608l-2.228-1.286a1.441,1.441,0,0,1-.6-1.151v-2.358c0-.443.269-.647.6-.455l2.228,1.286a1.444,1.444,0,0,1,.6,1.152v2.357C796.609,209.6,796.339,209.8,796.007,209.608Z" transform="translate(-750.292 -175.08)" fill="#fefeff"/>
        </g>
        <g id="Group_18686" data-name="Group 18686" transform="translate(2.322 107.495)">
          <path id="Path_19925" data-name="Path 19925" d="M793.855,230.642l-47.023-27.149a4.562,4.562,0,0,1-1.905-3.641v-8.967c0-1.4.853-2.048,1.905-1.441l47.023,27.149a4.565,4.565,0,0,1,1.905,3.641V229.2C795.76,230.6,794.907,231.25,793.855,230.642Z" transform="translate(-744.926 -189.216)" fill="#cecece"/>
          <path id="Path_19926" data-name="Path 19926" d="M792.791,227.906l-44.323-25.59a2.316,2.316,0,0,1-.967-1.848v-6.741c0-.712.433-1.039.967-.731l44.323,25.59a2.313,2.313,0,0,1,.967,1.847v6.741C793.758,227.886,793.325,228.214,792.791,227.906Z" transform="translate(-745.212 -189.624)" fill="#fefeff" opacity="0.4"/>
          <path id="Path_19927" data-name="Path 19927" d="M758.037,204.857l-6.615-3.819a2.249,2.249,0,0,1-.939-1.794h0c0-.691.42-1.01.939-.71l6.615,3.819a2.249,2.249,0,0,1,.938,1.794h0C758.975,204.838,758.555,205.156,758.037,204.857Z" transform="translate(-745.544 -190.24)" fill="#fefeff"/>
          <path id="Path_19928" data-name="Path 19928" d="M765.053,207.661c0,.691-.485.971-1.084.626a2.4,2.4,0,0,1-1.084-1.877c0-.691.485-.972,1.084-.627A2.4,2.4,0,0,1,765.053,207.661Z" transform="translate(-746.923 -191.042)" fill="#7a7a7a"/>
          <path id="Path_19929" data-name="Path 19929" d="M769.356,210.146c0,.691-.485.971-1.084.626a2.4,2.4,0,0,1-1.084-1.878c0-.691.486-.971,1.084-.626A2.4,2.4,0,0,1,769.356,210.146Z" transform="translate(-747.402 -191.318)" fill="#7a7a7a"/>
          <path id="Path_19930" data-name="Path 19930" d="M773.659,212.631c0,.691-.485.971-1.084.626a2.4,2.4,0,0,1-1.083-1.878c0-.691.485-.971,1.083-.626A2.4,2.4,0,0,1,773.659,212.631Z" transform="translate(-747.88 -191.595)" fill="#fefeff"/>
          <path id="Path_19931" data-name="Path 19931" d="M777.962,215.115c0,.691-.485.972-1.083.627a2.4,2.4,0,0,1-1.084-1.878c0-.691.485-.971,1.084-.626A2.4,2.4,0,0,1,777.962,215.115Z" transform="translate(-748.359 -191.871)" fill="#7a7a7a"/>
          <path id="Path_19932" data-name="Path 19932" d="M796.007,227.4l-2.228-1.286a1.441,1.441,0,0,1-.6-1.151V222.6c0-.444.269-.647.6-.455l2.228,1.286a1.444,1.444,0,0,1,.6,1.151v2.358C796.609,227.386,796.339,227.59,796.007,227.4Z" transform="translate(-750.292 -192.87)" fill="#7a7a7a"/>
        </g>
        <g id="Group_18687" data-name="Group 18687" transform="translate(2.322 123.307)">
          <path id="Path_19933" data-name="Path 19933" d="M793.855,248.432l-47.023-27.149a4.563,4.563,0,0,1-1.905-3.64v-8.967c0-1.4.853-2.048,1.905-1.441l47.023,27.149a4.565,4.565,0,0,1,1.905,3.641v8.966C795.76,248.394,794.907,249.04,793.855,248.432Z" transform="translate(-744.926 -207.006)" fill="#cecece"/>
          <path id="Path_19934" data-name="Path 19934" d="M792.791,245.7l-44.323-25.59a2.316,2.316,0,0,1-.967-1.848v-6.741c0-.712.433-1.039.967-.731l44.323,25.59a2.313,2.313,0,0,1,.967,1.847v6.741C793.758,245.676,793.325,246,792.791,245.7Z" transform="translate(-745.212 -207.413)" fill="#fefeff" opacity="0.4"/>
          <path id="Path_19935" data-name="Path 19935" d="M758.037,222.647l-6.615-3.819a2.249,2.249,0,0,1-.939-1.794h0c0-.691.42-1.01.939-.71l6.615,3.819a2.249,2.249,0,0,1,.938,1.794h0C758.975,222.628,758.555,222.946,758.037,222.647Z" transform="translate(-745.544 -208.03)" fill="#fefeff"/>
          <path id="Path_19936" data-name="Path 19936" d="M765.053,225.451c0,.691-.485.971-1.084.626a2.4,2.4,0,0,1-1.084-1.877c0-.691.485-.972,1.084-.627A2.4,2.4,0,0,1,765.053,225.451Z" transform="translate(-746.923 -208.832)" fill="#fff"/>
          <path id="Path_19937" data-name="Path 19937" d="M769.356,227.936c0,.691-.485.972-1.084.627a2.4,2.4,0,0,1-1.084-1.878c0-.691.486-.971,1.084-.626A2.4,2.4,0,0,1,769.356,227.936Z" transform="translate(-747.402 -209.108)" fill="#7a7a7a"/>
          <path id="Path_19938" data-name="Path 19938" d="M773.659,230.421c0,.691-.485.971-1.084.626a2.4,2.4,0,0,1-1.083-1.878c0-.691.485-.971,1.083-.626A2.4,2.4,0,0,1,773.659,230.421Z" transform="translate(-747.88 -209.385)" fill="#fefeff"/>
          <path id="Path_19939" data-name="Path 19939" d="M777.962,232.9c0,.691-.485.972-1.083.627a2.4,2.4,0,0,1-1.084-1.878c0-.691.485-.971,1.084-.626A2.4,2.4,0,0,1,777.962,232.9Z" transform="translate(-748.359 -209.661)" fill="#7a7a7a"/>
          <path id="Path_19940" data-name="Path 19940" d="M796.007,245.188l-2.228-1.286a1.441,1.441,0,0,1-.6-1.151v-2.358c0-.443.269-.647.6-.455l2.228,1.286a1.444,1.444,0,0,1,.6,1.151v2.358C796.609,245.176,796.339,245.38,796.007,245.188Z" transform="translate(-750.292 -210.66)" fill="#fefeff"/>
        </g>
      </g>
      <g id="Group_18692" data-name="Group 18692" transform="translate(126.305 48.436)">
        <path id="Path_19941" data-name="Path 19941" d="M784.5,87.734a.71.71,0,0,1-.71-.71V57.793a.71.71,0,1,1,1.42,0V87.024A.711.711,0,0,1,784.5,87.734Z" transform="translate(-780.385 -40.682)" fill="#cecece"/>
        <g id="Group_18691" data-name="Group 18691">
          <g id="Group_18689" data-name="Group 18689" transform="translate(1.575 15.273)">
            <rect id="Rectangle_522" data-name="Rectangle 522" width="5.078" height="10.959" fill="#cecece"/>
            <path id="Path_19942" data-name="Path 19942" d="M786.067,69a3.97,3.97,0,0,1-3.591,0,1.1,1.1,0,0,1,0-2.074,3.97,3.97,0,0,1,3.591,0A1.1,1.1,0,0,1,786.067,69Z" transform="translate(-781.732 -57.001)" fill="#cecece"/>
          </g>
          <g id="Group_18690" data-name="Group 18690">
            <rect id="Rectangle_523" data-name="Rectangle 523" width="8.229" height="17.188" transform="translate(0)" fill="#cecece"/>
            <path id="Path_19943" data-name="Path 19943" d="M781.732,57.778v3.709a6.567,6.567,0,0,0,5.078,0V57.778A6.567,6.567,0,0,0,781.732,57.778Z" transform="translate(-780.156 -40.702)" fill="#aaa9aa"/>
            <path id="Path_19944" data-name="Path 19944" d="M786.983,59.351a6.435,6.435,0,0,1-5.819,0c-1.607-.928-1.607-2.432,0-3.36a6.43,6.43,0,0,1,5.819,0C788.59,56.919,788.59,58.423,786.983,59.351Z" transform="translate(-779.959 -40.483)" fill="#cecece"/>
          </g>
        </g>
      </g>
      <g id="Group_18696" data-name="Group 18696" transform="translate(133.205 52.56)">
        <path id="Path_19945" data-name="Path 19945" d="M792.307,92.4a.71.71,0,0,1-.709-.71V62.455a.71.71,0,1,1,1.419,0V91.686A.71.71,0,0,1,792.307,92.4Z" transform="translate(-788.193 -45.344)" fill="#cecece"/>
        <g id="Group_18695" data-name="Group 18695">
          <g id="Group_18693" data-name="Group 18693" transform="translate(1.576 15.273)">
            <rect id="Rectangle_524" data-name="Rectangle 524" width="5.078" height="10.959" fill="#cecece"/>
            <path id="Path_19946" data-name="Path 19946" d="M793.875,73.659a3.971,3.971,0,0,1-3.592,0,1.094,1.094,0,0,1,0-2.073,3.965,3.965,0,0,1,3.592,0A1.094,1.094,0,0,1,793.875,73.659Z" transform="translate(-789.54 -61.664)" fill="#cecece"/>
          </g>
          <g id="Group_18694" data-name="Group 18694">
            <rect id="Rectangle_525" data-name="Rectangle 525" width="8.229" height="17.188" transform="translate(0)" fill="#cecece"/>
            <path id="Path_19947" data-name="Path 19947" d="M789.54,62.44v3.709a6.567,6.567,0,0,0,5.078,0V62.44A6.575,6.575,0,0,0,789.54,62.44Z" transform="translate(-787.964 -45.365)" fill="#aaa9aa"/>
            <path id="Path_19948" data-name="Path 19948" d="M794.791,64.013a6.429,6.429,0,0,1-5.819,0c-1.607-.928-1.607-2.432,0-3.36a6.429,6.429,0,0,1,5.819,0C796.4,61.581,796.4,63.085,794.791,64.013Z" transform="translate(-787.767 -45.145)" fill="#cecece"/>
          </g>
        </g>
      </g>
      <g id="Group_18700" data-name="Group 18700" transform="translate(140.105 56.684)">
        <path id="Path_19949" data-name="Path 19949" d="M800.116,97.059a.71.71,0,0,1-.71-.71V67.118a.71.71,0,1,1,1.42,0V96.349A.71.71,0,0,1,800.116,97.059Z" transform="translate(-796.001 -50.007)" fill="#cecece"/>
        <g id="Group_18699" data-name="Group 18699">
          <g id="Group_18697" data-name="Group 18697" transform="translate(1.576 15.273)">
            <rect id="Rectangle_526" data-name="Rectangle 526" width="5.078" height="10.959" fill="#cecece"/>
            <path id="Path_19950" data-name="Path 19950" d="M801.683,78.322a3.969,3.969,0,0,1-3.591,0,1.1,1.1,0,0,1,0-2.074,3.971,3.971,0,0,1,3.592,0A1.1,1.1,0,0,1,801.683,78.322Z" transform="translate(-797.348 -66.326)" fill="#cecece"/>
          </g>
          <g id="Group_18698" data-name="Group 18698">
            <rect id="Rectangle_527" data-name="Rectangle 527" width="8.229" height="17.188" transform="translate(0)" fill="#cecece"/>
            <path id="Path_19951" data-name="Path 19951" d="M797.348,67.1v3.708a6.569,6.569,0,0,0,5.079,0V67.1A6.569,6.569,0,0,0,797.348,67.1Z" transform="translate(-795.772 -50.027)" fill="#aaa9aa"/>
            <path id="Path_19952" data-name="Path 19952" d="M802.6,68.676a6.433,6.433,0,0,1-5.819,0c-1.607-.927-1.607-2.432,0-3.359a6.43,6.43,0,0,1,5.819,0C804.206,66.243,804.206,67.748,802.6,68.676Z" transform="translate(-795.575 -49.808)" fill="#cecece"/>
          </g>
        </g>
      </g>
      <g id="Group_18704" data-name="Group 18704" transform="translate(147.005 60.807)">
        <path id="Path_19953" data-name="Path 19953" d="M807.924,101.721a.71.71,0,0,1-.71-.71V71.78a.71.71,0,0,1,1.42,0v29.231A.71.71,0,0,1,807.924,101.721Z" transform="translate(-803.809 -54.669)" fill="#cecece"/>
        <g id="Group_18703" data-name="Group 18703">
          <g id="Group_18701" data-name="Group 18701" transform="translate(1.576 15.273)">
            <rect id="Rectangle_528" data-name="Rectangle 528" width="5.078" height="10.959" fill="#cecece"/>
            <path id="Path_19954" data-name="Path 19954" d="M809.491,82.984a3.969,3.969,0,0,1-3.591,0,1.094,1.094,0,0,1,0-2.074,3.966,3.966,0,0,1,3.591,0A1.094,1.094,0,0,1,809.491,82.984Z" transform="translate(-805.156 -70.989)" fill="#cecece"/>
          </g>
          <g id="Group_18702" data-name="Group 18702">
            <rect id="Rectangle_529" data-name="Rectangle 529" width="8.229" height="17.188" transform="translate(0)" fill="#cecece"/>
            <path id="Path_19955" data-name="Path 19955" d="M805.156,71.765v3.709a6.569,6.569,0,0,0,5.078,0V71.765A6.569,6.569,0,0,0,805.156,71.765Z" transform="translate(-803.58 -54.689)" fill="#aaa9aa"/>
            <path id="Path_19956" data-name="Path 19956" d="M810.407,73.338a6.43,6.43,0,0,1-5.819,0c-1.607-.928-1.607-2.432,0-3.36a6.43,6.43,0,0,1,5.819,0C812.014,70.906,812.014,72.41,810.407,73.338Z" transform="translate(-803.383 -54.47)" fill="#cecece"/>
          </g>
        </g>
      </g>
      <g id="Group_18711" data-name="Group 18711" transform="translate(98.692)">
        <g id="Group_18707" data-name="Group 18707">
          <path id="Path_19957" data-name="Path 19957" d="M844.022,85.518l11.034-6.5L844.547,65.905l-2.763,4.513Z" transform="translate(-759.403 7.011)" fill="#cecece"/>
          <path id="Path_19958" data-name="Path 19958" d="M754.162,5.719l17.61-10.131s-.662,10.111-.662,10.131-10.116,3.134-10.116,3.134Z" transform="translate(-749.658 14.831)" fill="#cecece"/>
          <path id="Path_19959" data-name="Path 19959" d="M838.981,43.416A11.08,11.08,0,0,0,835.171,42c-1.775-9.331-8.268-19.24-16.01-23.709a15.67,15.67,0,0,0-6.551-2.218C811.553,4.768,803.689-8.086,794.14-13.6c-4.989-2.88-9.515-3.221-12.854-1.457v-.009l-.162.093c-.085.047-.17.1-.253.146L770.487-8.693l3.45,2.725c-3.1,1.354-5.055,4.828-5.055,9.962,0,9.469,6.648,20.983,14.849,25.718l55.25,39.453c6.158,3.555,11.15.674,11.15-6.438S845.138,46.971,838.981,43.416Z" transform="translate(-751.295 16.135)" fill="#cecece"/>
          <path id="Path_19960" data-name="Path 19960" d="M769.459-.175,793.292-14.1c-4.627-2.413-8.807-2.612-11.942-.956v-.009l-.162.093c-.085.047-.17.1-.253.146L770.551-8.693,774-5.968A8.328,8.328,0,0,0,769.459-.175Z" transform="translate(-751.36 16.135)" fill="#cecece"/>
          <path id="Path_19961" data-name="Path 19961" d="M816.709,44.983,834.1,34.778c-2.982-5.159-7.089-9.665-11.636-12.29q-.9-.521-1.78-.916L798.563,34.506Z" transform="translate(-754.596 11.942)" fill="#cecece"/>
          <path id="Path_19962" data-name="Path 19962" d="M776.2-7.5l7.749,4.474,14.192-8.359a28.232,28.232,0,0,0-3.188-2.161,19.925,19.925,0,0,0-4.959-2.083Z" transform="translate(-752.109 16.078)" fill="#fefeff"/>
          <path id="Path_19963" data-name="Path 19963" d="M834.649,33.052,820.771,41.23l4.827,5.384,12.6-7.439A40.363,40.363,0,0,0,834.649,33.052Z" transform="translate(-757.066 10.665)" fill="#fefeff"/>
          <path id="Path_19964" data-name="Path 19964" d="M825.879,50.64a11.1,11.1,0,0,0-3.81-1.411c-1.775-9.331-8.268-19.241-16.01-23.71a15.667,15.667,0,0,0-6.551-2.217c-1.057-11.31-8.921-24.164-18.47-29.677-10.27-5.929-18.6-1.123-18.6,10.736,0,.4.012.808.03,1.216-7.509-3.483-13.377.441-13.377,9.337,0,9.469,6.648,20.983,14.848,25.718l61.935,35.758c6.158,3.555,11.15.674,11.15-6.437S832.037,54.2,825.879,50.64Z" transform="translate(-749.095 15.332)" fill="#0f57fb"/>
          <g id="Group_18705" data-name="Group 18705" transform="translate(3.397 5.534)">
            <path id="Path_19965" data-name="Path 19965" d="M762.9,7.124c-.019-.408-.03-.814-.03-1.216,0-.017,0-.034,0-.051-4.149-1.613-7.714-.911-9.951,1.678C755.347,5.535,758.882,5.261,762.9,7.124Z" transform="translate(-752.917 8.25)" fill="#fff"/>
            <path id="Path_19966" data-name="Path 19966" d="M828.97,49.646a11.1,11.1,0,0,0-3.81-1.412c-1.775-9.331-8.268-19.24-16.01-23.709a15.651,15.651,0,0,0-6.551-2.217C801.542,11,793.678-1.856,784.129-7.369c-6.4-3.694-12.04-3.22-15.386.53,3.409-2.913,8.627-3.025,14.479.354,9.549,5.513,17.413,18.367,18.47,29.677a15.667,15.667,0,0,1,6.551,2.217c7.742,4.47,14.235,14.379,16.01,23.71a11.082,11.082,0,0,1,3.81,1.412c6.158,3.555,11.15,12.2,11.15,19.312a9.184,9.184,0,0,1-1.778,5.931c1.67-1.286,2.684-3.618,2.684-6.815C840.12,61.848,835.128,53.2,828.97,49.646Z" transform="translate(-754.677 9.908)" fill="#fff"/>
          </g>
          <g id="Group_18706" data-name="Group 18706" transform="translate(3.113 9.523)">
            <path id="Path_19967" data-name="Path 19967" d="M761.553,8.789l4.655,2.159-.236-5.127c-.017-.36-.027-.717-.027-1.072,0-4.576,1.382-7.894,3.89-9.343s6.073-.985,10.036,1.3c8.523,4.921,15.957,16.9,16.927,27.271l.244,2.612,2.616.2a12.574,12.574,0,0,1,5.234,1.81c6.77,3.908,12.872,12.991,14.509,21.595l.41,2.154,2.166.339a8.043,8.043,0,0,1,2.736,1.034c5.2,3,9.594,10.611,9.594,16.615,0,2.248-.623,3.9-1.71,4.524s-2.825.342-4.771-.781L765.889,38.324c-7.2-4.16-13.292-14.7-13.292-23.022,0-3.265.963-5.752,2.641-6.824a4.524,4.524,0,0,1,2.469-.66A9.311,9.311,0,0,1,761.553,8.789Z" transform="translate(-752.597 5.421)" fill="#aaa9aa"/>
          </g>
        </g>
        <g id="Group_18710" data-name="Group 18710" transform="translate(29.471 39.618)">
          <path id="Path_19968" data-name="Path 19968" d="M797.452,53.986l1.634-.82-1.608-1.219Z" transform="translate(-783.944 -31.055)" fill="#cecece"/>
          <path id="Path_19969" data-name="Path 19969" d="M791.931,29.309l1.586-.8.029.83Z" transform="translate(-783.33 -28.448)" fill="#cecece"/>
          <path id="Path_19970" data-name="Path 19970" d="M802.5,47.953l1.655-.832-3.186-3.03Z" transform="translate(-784.336 -30.181)" fill="#cecece"/>
          <g id="Group_18708" data-name="Group 18708" transform="translate(1.659)">
            <path id="Path_19971" data-name="Path 19971" d="M797.7,51.406l-7.735-4.555a1.649,1.649,0,0,1-.708-1.3l.025-8.955,9.157,5.393-.025,8.955C798.407,51.43,798.088,51.637,797.7,51.406Z" transform="translate(-784.691 -29.347)" fill="#cecece"/>
            <path id="Path_19972" data-name="Path 19972" d="M792.631,28.509l-8.355,5.375c-.355.228-.068,1.079.471,1.4l8.532,5.025,8.532,5.025c.539.317.828-.194.477-.838l-8.3-15.182C793.635,28.655,792.992,28.277,792.631,28.509Z" transform="translate(-784.12 -28.441)" fill="#cecece"/>
          </g>
          <g id="Group_18709" data-name="Group 18709" transform="translate(0 0.835)">
            <path id="Path_19973" data-name="Path 19973" d="M795.829,52.346l-7.736-4.556a1.651,1.651,0,0,1-.708-1.3l.026-8.955,9.157,5.393-.026,8.955C796.541,52.37,796.221,52.577,795.829,52.346Z" transform="translate(-782.824 -30.287)" fill="#fefeff"/>
            <path id="Path_19974" data-name="Path 19974" d="M790.765,29.449l-8.355,5.375c-.355.228-.068,1.079.47,1.4l8.532,5.026,8.532,5.025c.539.317.829-.194.477-.838l-8.3-15.182C791.768,29.6,791.126,29.216,790.765,29.449Z" transform="translate(-782.254 -29.38)" fill="#fefeff"/>
          </g>
        </g>
      </g>
      <path id="Path_19975" data-name="Path 19975" d="M828.2,222.5h-.948V169.562l6.252-3.61V139.891h.948V166.5l-6.252,3.61Z" transform="translate(-659.15 -1.997)" fill="#fff"/>
      <g id="Group_18712" data-name="Group 18712" transform="translate(0 192.725)">
        <path id="Path_19976" data-name="Path 19976" d="M656.756,240.821a3.251,3.251,0,0,1-1.6-.424l-17.275-9.782a1.658,1.658,0,0,1-.013-2.879l43.09-24.926a8.034,8.034,0,0,1,8.016,0l49.252,28.466-.712,1.231L688.26,204.039a6.617,6.617,0,0,0-6.594,0l-43.089,24.925a.232.232,0,0,0-.119.208.229.229,0,0,0,.121.206l17.275,9.782a1.822,1.822,0,0,0,1.894-.055l7.3-4.72.771,1.193-7.3,4.72A3.24,3.24,0,0,1,656.756,240.821Z" transform="translate(-637.036 -201.738)" fill="#e8e5ea"/>
      </g>
      <g id="Group_18723" data-name="Group 18723" transform="translate(11.278 147.596)">
        <path id="Path_19977" data-name="Path 19977" d="M681.506,246.166l-23.223-13.407c-1.425-.823-1.246-2.261.4-3.211L681.106,216.6a6.179,6.179,0,0,1,5.56-.23l23.223,13.407c1.425.823,1.246,2.26-.4,3.21l-22.423,12.946A6.177,6.177,0,0,1,681.506,246.166Z" transform="translate(-650.57 -158.113)" fill="#e8e5ea"/>
        <g id="Group_18714" data-name="Group 18714" transform="translate(0 32.069)">
          <path id="Path_19978" data-name="Path 19978" d="M716.748,218.13h0V208.1l-22.5-.012-7.777-4.49a7.739,7.739,0,0,0-6.963.289l-7.255,4.189-22.519-.012v10.319a2.016,2.016,0,0,0,1.2,1.866l29.08,16.79a7.739,7.739,0,0,0,6.963-.289l28.08-16.212A2.759,2.759,0,0,0,716.748,218.13Z" transform="translate(-649.726 -188.746)" fill="#aaa9aa"/>
          <path id="Path_19979" data-name="Path 19979" d="M683.242,202.9a8.031,8.031,0,0,0-3.732.979l-7.255,4.189-22.519-.012v10.319a2.016,2.016,0,0,0,1.2,1.866l29.08,16.79a6.3,6.3,0,0,0,3.231.69Z" transform="translate(-649.726 -188.747)" fill="#aaa9aa"/>
          <path id="Path_19980" data-name="Path 19980" d="M652.284,208.707l-2.548,0v10.319a2.016,2.016,0,0,0,1.2,1.866l1.353.781Z" transform="translate(-649.726 -189.392)" fill="#cecece"/>
          <path id="Path_19981" data-name="Path 19981" d="M684.3,240.077a7.934,7.934,0,0,0,5.566-.063V228.3H684.3Z" transform="translate(-653.571 -191.571)" fill="#cecece"/>
          <path id="Path_19982" data-name="Path 19982" d="M680.01,224.981l-29.08-16.789c-1.785-1.03-1.561-2.831.5-4.02l28.08-16.212a7.739,7.739,0,0,1,6.963-.289l29.08,16.789c1.785,1.03,1.561,2.831-.5,4.02l-28.08,16.212A7.739,7.739,0,0,1,680.01,224.981Z" transform="translate(-649.725 -186.975)" fill="#fefeff"/>
          <path id="Path_19983" data-name="Path 19983" d="M681.213,222.351l-24.37-14.07c-1.5-.864-1.308-2.372.419-3.369l23.531-13.585a6.483,6.483,0,0,1,5.835-.242L711,205.155c1.5.864,1.308,2.372-.419,3.369l-23.531,13.585A6.484,6.484,0,0,1,681.213,222.351Z" transform="translate(-650.405 -187.368)" fill="#cecece"/>
          <g id="Group_18713" data-name="Group 18713" transform="translate(53.978 26.83)">
            <path id="Path_19984" data-name="Path 19984" d="M712.806,222.91a2.6,2.6,0,0,1-1.175,2.034c-.648.375-1.174.071-1.174-.678a2.6,2.6,0,0,1,1.174-2.034C712.28,221.858,712.806,222.162,712.806,222.91Z" transform="translate(-710.457 -217.709)" fill="#fefeff"/>
            <path id="Path_19985" data-name="Path 19985" d="M717.058,220.456a2.6,2.6,0,0,1-1.175,2.034c-.649.374-1.174.07-1.174-.678a2.6,2.6,0,0,1,1.174-2.035C716.532,219.4,717.058,219.707,717.058,220.456Z" transform="translate(-710.93 -217.436)" fill="#fefeff"/>
            <path id="Path_19986" data-name="Path 19986" d="M721.31,218a2.6,2.6,0,0,1-1.175,2.034c-.649.374-1.174.071-1.174-.678a2.6,2.6,0,0,1,1.174-2.034C720.784,216.949,721.31,217.252,721.31,218Z" transform="translate(-711.403 -217.163)" fill="#fefeff"/>
          </g>
        </g>
        <g id="Group_18716" data-name="Group 18716" transform="translate(0 16.035)">
          <path id="Path_19987" data-name="Path 19987" d="M716.748,200.089h0V190.056l-22.5-.012-7.777-4.49a7.739,7.739,0,0,0-6.963.289l-7.255,4.189-22.519-.012v10.319a2.016,2.016,0,0,0,1.2,1.866l29.08,16.79a7.739,7.739,0,0,0,6.963-.289l28.08-16.212A2.759,2.759,0,0,0,716.748,200.089Z" transform="translate(-649.726 -170.705)" fill="#aaa9aa"/>
          <path id="Path_19988" data-name="Path 19988" d="M683.242,184.863a8.03,8.03,0,0,0-3.732.979l-7.255,4.189-22.519-.012v10.319a2.016,2.016,0,0,0,1.2,1.866l29.08,16.79a6.3,6.3,0,0,0,3.231.69Z" transform="translate(-649.726 -170.706)" fill="#aaa9aa"/>
          <path id="Path_19989" data-name="Path 19989" d="M652.284,190.666l-2.548,0v10.319a2.016,2.016,0,0,0,1.2,1.866l1.353.781Z" transform="translate(-649.726 -171.351)" fill="#cecece"/>
          <path id="Path_19990" data-name="Path 19990" d="M684.3,222.036a7.933,7.933,0,0,0,5.566-.063V210.256H684.3Z" transform="translate(-653.571 -173.53)" fill="#cecece"/>
          <path id="Path_19991" data-name="Path 19991" d="M680.01,206.94,650.93,190.15c-1.785-1.03-1.561-2.831.5-4.02l28.08-16.212a7.739,7.739,0,0,1,6.963-.289l29.08,16.789c1.785,1.031,1.561,2.831-.5,4.02l-28.08,16.212A7.739,7.739,0,0,1,680.01,206.94Z" transform="translate(-649.725 -168.934)" fill="#fefeff"/>
          <path id="Path_19992" data-name="Path 19992" d="M681.213,204.31l-24.37-14.07c-1.5-.864-1.308-2.372.419-3.369l23.531-13.585a6.483,6.483,0,0,1,5.835-.242L711,187.114c1.5.864,1.308,2.372-.419,3.369l-23.531,13.585A6.484,6.484,0,0,1,681.213,204.31Z" transform="translate(-650.405 -169.327)" fill="#cecece"/>
          <g id="Group_18715" data-name="Group 18715" transform="translate(53.978 26.83)">
            <path id="Path_19993" data-name="Path 19993" d="M712.806,204.87a2.6,2.6,0,0,1-1.175,2.034c-.648.375-1.174.071-1.174-.677a2.6,2.6,0,0,1,1.174-2.034C712.28,203.817,712.806,204.121,712.806,204.87Z" transform="translate(-710.457 -199.668)" fill="#fefeff"/>
            <path id="Path_19994" data-name="Path 19994" d="M717.058,202.415a2.6,2.6,0,0,1-1.175,2.035c-.649.374-1.174.07-1.174-.678a2.594,2.594,0,0,1,1.174-2.034C716.532,201.362,717.058,201.666,717.058,202.415Z" transform="translate(-710.93 -199.395)" fill="#fefeff"/>
            <path id="Path_19995" data-name="Path 19995" d="M721.31,199.96a2.6,2.6,0,0,1-1.175,2.034c-.649.374-1.174.071-1.174-.678a2.6,2.6,0,0,1,1.174-2.034C720.784,198.908,721.31,199.211,721.31,199.96Z" transform="translate(-711.403 -199.122)" fill="#fefeff"/>
          </g>
        </g>
        <g id="Group_18719" data-name="Group 18719">
          <path id="Path_19996" data-name="Path 19996" d="M716.748,182.048h0V172.015L694.25,172l-7.777-4.49a7.739,7.739,0,0,0-6.963.289l-7.255,4.189-22.519-.012V182.3a2.016,2.016,0,0,0,1.2,1.866l29.08,16.79a7.739,7.739,0,0,0,6.963-.289l28.08-16.211A2.759,2.759,0,0,0,716.748,182.048Z" transform="translate(-649.726 -152.664)" fill="#aaa9aa"/>
          <path id="Path_19997" data-name="Path 19997" d="M683.242,166.822a8.031,8.031,0,0,0-3.732.979l-7.255,4.189-22.519-.012V182.3a2.016,2.016,0,0,0,1.2,1.866l29.08,16.79a6.3,6.3,0,0,0,3.231.69Z" transform="translate(-649.726 -152.665)" fill="#aaa9aa"/>
          <path id="Path_19998" data-name="Path 19998" d="M652.284,172.625l-2.548,0v10.319a2.016,2.016,0,0,0,1.2,1.866l1.353.781Z" transform="translate(-649.726 -153.31)" fill="#cecece"/>
          <path id="Path_19999" data-name="Path 19999" d="M684.3,204a7.933,7.933,0,0,0,5.566-.063V192.215H684.3Z" transform="translate(-653.571 -155.489)" fill="#cecece"/>
          <path id="Path_20000" data-name="Path 20000" d="M680.01,188.9l-29.08-16.789c-1.785-1.03-1.561-2.831.5-4.02l28.08-16.212a7.739,7.739,0,0,1,6.963-.289l29.08,16.789c1.785,1.031,1.561,2.831-.5,4.02l-28.08,16.212A7.739,7.739,0,0,1,680.01,188.9Z" transform="translate(-649.725 -150.893)" fill="#0f57fb"/>
          <path id="Path_20001" data-name="Path 20001" d="M715.053,172.711l-28.08,16.212a7.739,7.739,0,0,1-6.963.288l-29.08-16.789a2.674,2.674,0,0,1-.891-.79,1.871,1.871,0,0,0,.891,2.765l29.08,16.789a7.736,7.736,0,0,0,6.963-.289l28.08-16.212c1.6-.924,2.088-2.216,1.39-3.23A3.9,3.9,0,0,1,715.053,172.711Z" transform="translate(-649.725 -153.18)" fill="#fff"/>
          <g id="Group_18717" data-name="Group 18717" transform="translate(53.978 26.83)">
            <path id="Path_20002" data-name="Path 20002" d="M712.806,186.829a2.6,2.6,0,0,1-1.175,2.034c-.648.375-1.174.071-1.174-.677a2.6,2.6,0,0,1,1.174-2.034C712.28,185.776,712.806,186.08,712.806,186.829Z" transform="translate(-710.457 -181.627)" fill="#fefeff"/>
            <path id="Path_20003" data-name="Path 20003" d="M717.058,184.374a2.6,2.6,0,0,1-1.175,2.034c-.649.374-1.174.07-1.174-.678a2.6,2.6,0,0,1,1.174-2.034C716.532,183.321,717.058,183.625,717.058,184.374Z" transform="translate(-710.93 -181.354)" fill="#fefeff"/>
            <path id="Path_20004" data-name="Path 20004" d="M721.31,181.919a2.6,2.6,0,0,1-1.175,2.034c-.649.374-1.174.071-1.174-.678a2.6,2.6,0,0,1,1.174-2.034C720.784,180.867,721.31,181.17,721.31,181.919Z" transform="translate(-711.403 -181.081)" fill="#fefeff"/>
          </g>
          <g id="Group_18718" data-name="Group 18718" transform="translate(17.833 9.811)">
            <path id="Path_20005" data-name="Path 20005" d="M683.961,179.718l-13.607-7.857c-.836-.483-.731-1.324.234-1.882l13.14-7.586a3.618,3.618,0,0,1,3.258-.135l13.607,7.857c.836.482.731,1.324-.234,1.881l-13.14,7.587A3.624,3.624,0,0,1,683.961,179.718Z" transform="translate(-669.789 -161.932)" fill="#cecece"/>
            <path id="Path_20006" data-name="Path 20006" d="M686.955,174.233l-1.883-1.087c-.116-.067-.1-.183.032-.26l1.818-1.05a.5.5,0,0,1,.451-.019l1.882,1.087c.115.067.1.184-.032.26l-1.818,1.05A.5.5,0,0,1,686.955,174.233Z" transform="translate(-671.48 -163.027)" fill="#fefeff"/>
            <path id="Path_20007" data-name="Path 20007" d="M670.354,171.861l.038.022a2.1,2.1,0,0,1,.2-.134l13.14-7.587a3.624,3.624,0,0,1,3.258-.135l13.569,7.835c.77-.551.811-1.3.038-1.747l-13.607-7.857a3.618,3.618,0,0,0-3.258.135l-13.14,7.586C669.623,170.536,669.518,171.378,670.354,171.861Z" transform="translate(-669.789 -161.932)" fill="#aaa9aa"/>
          </g>
        </g>
        <g id="Group_18720" data-name="Group 18720" transform="translate(24.377 38.054)">
          <path id="Path_20008" data-name="Path 20008" d="M681.493,196.768c0,.5-.354.708-.79.457a1.748,1.748,0,0,1-.791-1.37c0-.5.354-.708.791-.456A1.746,1.746,0,0,1,681.493,196.768Z" transform="translate(-677.46 -193.885)" fill="#fefeff"/>
          <path id="Path_20009" data-name="Path 20009" d="M678.734,195.186c0,.5-.354.708-.79.456a1.747,1.747,0,0,1-.791-1.369c0-.5.355-.708.791-.457A1.749,1.749,0,0,1,678.734,195.186Z" transform="translate(-677.153 -193.709)" fill="#fefeff"/>
          <path id="Path_20010" data-name="Path 20010" d="M681.493,200.1c0,.5-.354.708-.79.456a1.746,1.746,0,0,1-.791-1.369c0-.5.354-.708.791-.457A1.748,1.748,0,0,1,681.493,200.1Z" transform="translate(-677.46 -194.255)" fill="#fefeff"/>
          <path id="Path_20011" data-name="Path 20011" d="M678.734,198.515c0,.5-.354.708-.79.457a1.75,1.75,0,0,1-.791-1.37c0-.5.355-.708.791-.456A1.746,1.746,0,0,1,678.734,198.515Z" transform="translate(-677.153 -194.079)" fill="#fefeff"/>
        </g>
        <g id="Group_18721" data-name="Group 18721" transform="translate(24.377 54.009)">
          <path id="Path_20012" data-name="Path 20012" d="M681.493,214.72c0,.5-.354.708-.79.456a1.746,1.746,0,0,1-.791-1.369c0-.5.354-.708.791-.457A1.748,1.748,0,0,1,681.493,214.72Z" transform="translate(-677.46 -211.836)" fill="#fefeff"/>
          <path id="Path_20013" data-name="Path 20013" d="M678.734,213.137c0,.5-.354.708-.79.457a1.75,1.75,0,0,1-.791-1.37c0-.5.355-.708.791-.456A1.746,1.746,0,0,1,678.734,213.137Z" transform="translate(-677.153 -211.66)" fill="#fefeff"/>
          <path id="Path_20014" data-name="Path 20014" d="M681.493,218.049c0,.5-.354.708-.79.456a1.745,1.745,0,0,1-.791-1.369c0-.5.354-.708.791-.456A1.746,1.746,0,0,1,681.493,218.049Z" transform="translate(-677.46 -212.207)" fill="#fefeff"/>
          <path id="Path_20015" data-name="Path 20015" d="M678.734,216.467c0,.5-.354.708-.79.456a1.748,1.748,0,0,1-.791-1.369c0-.5.355-.708.791-.457A1.747,1.747,0,0,1,678.734,216.467Z" transform="translate(-677.153 -212.031)" fill="#fefeff"/>
        </g>
        <g id="Group_18722" data-name="Group 18722" transform="translate(24.377 69.964)">
          <path id="Path_20016" data-name="Path 20016" d="M681.493,232.671c0,.5-.354.708-.79.456a1.745,1.745,0,0,1-.791-1.369c0-.5.354-.708.791-.456A1.746,1.746,0,0,1,681.493,232.671Z" transform="translate(-677.46 -229.788)" fill="#fefeff"/>
          <path id="Path_20017" data-name="Path 20017" d="M678.734,231.089c0,.5-.354.708-.79.456a1.748,1.748,0,0,1-.791-1.369c0-.5.355-.708.791-.457A1.748,1.748,0,0,1,678.734,231.089Z" transform="translate(-677.153 -229.612)" fill="#fefeff"/>
          <path id="Path_20018" data-name="Path 20018" d="M681.493,236c0,.5-.354.708-.79.457a1.746,1.746,0,0,1-.791-1.37c0-.5.354-.708.791-.456A1.747,1.747,0,0,1,681.493,236Z" transform="translate(-677.46 -230.158)" fill="#fefeff"/>
          <path id="Path_20019" data-name="Path 20019" d="M678.734,234.418c0,.5-.354.708-.79.456a1.747,1.747,0,0,1-.791-1.369c0-.5.355-.708.791-.456A1.746,1.746,0,0,1,678.734,234.418Z" transform="translate(-677.153 -229.982)" fill="#fefeff"/>
        </g>
      </g>
      <path id="Path_20020" data-name="Path 20020" d="M685.626,261.032a4.79,4.79,0,0,1-2.405-.645l-14.654-8.5a1.6,1.6,0,0,1,0-2.762l9.637-5.59.713,1.229-9.636,5.589a.176.176,0,0,0,0,.3l14.653,8.5a3.385,3.385,0,0,0,3.36.013L716,242.816a4.811,4.811,0,0,1,4.78.02l24.043,13.886a3.375,3.375,0,0,0,3.384.005l11.593-6.7.711,1.231-11.593,6.7a4.8,4.8,0,0,1-4.807-.007l-24.042-13.886a3.383,3.383,0,0,0-3.365-.016L688,260.406A4.786,4.786,0,0,1,685.626,261.032Z" transform="translate(-640.454 -13.608)" fill="#e8e5ea"/>
      <g id="Group_18731" data-name="Group 18731" transform="translate(140.47 213.174)">
        <path id="Path_20021" data-name="Path 20021" d="M828.06,320.465l-23.223-13.407c-1.425-.823-1.246-2.26.4-3.21L827.66,290.9a6.177,6.177,0,0,1,5.56-.231l23.223,13.407c1.425.823,1.246,2.261-.4,3.211L833.62,320.235A6.179,6.179,0,0,1,828.06,320.465Z" transform="translate(-797.124 -232.412)" fill="#e8e5ea"/>
        <g id="Group_18725" data-name="Group 18725" transform="translate(0 32.069)">
          <path id="Path_20022" data-name="Path 20022" d="M863.3,292.429h0V282.4l-22.5-.012-7.777-4.49a7.739,7.739,0,0,0-6.963.289l-7.256,4.189-22.518-.012v10.32a2.017,2.017,0,0,0,1.2,1.866l29.08,16.789a7.739,7.739,0,0,0,6.963-.289l28.08-16.212A2.757,2.757,0,0,0,863.3,292.429Z" transform="translate(-796.28 -263.045)" fill="#aaa9aa"/>
          <path id="Path_20023" data-name="Path 20023" d="M829.8,277.2a8.031,8.031,0,0,0-3.732.979l-7.256,4.189-22.518-.012v10.32a2.017,2.017,0,0,0,1.2,1.866l29.08,16.789a6.293,6.293,0,0,0,3.231.69Z" transform="translate(-796.28 -263.046)" fill="#aaa9aa"/>
          <path id="Path_20024" data-name="Path 20024" d="M798.838,283.006l-2.548,0v10.32a2.017,2.017,0,0,0,1.2,1.866l1.353.78Z" transform="translate(-796.28 -263.691)" fill="#cecece"/>
          <path id="Path_20025" data-name="Path 20025" d="M830.858,314.377a7.933,7.933,0,0,0,5.565-.064V302.6h-5.565Z" transform="translate(-800.125 -265.87)" fill="#cecece"/>
          <path id="Path_20026" data-name="Path 20026" d="M826.565,299.28l-29.08-16.789c-1.785-1.03-1.561-2.83.5-4.02l28.08-16.212a7.739,7.739,0,0,1,6.963-.289l29.08,16.789c1.785,1.031,1.561,2.831-.5,4.021l-28.08,16.211A7.736,7.736,0,0,1,826.565,299.28Z" transform="translate(-796.28 -261.275)" fill="#fefeff"/>
          <path id="Path_20027" data-name="Path 20027" d="M827.767,296.65,803.4,282.58c-1.5-.863-1.308-2.372.419-3.368l23.531-13.586a6.486,6.486,0,0,1,5.835-.242l24.37,14.07c1.5.864,1.308,2.372-.419,3.369L833.6,296.408A6.484,6.484,0,0,1,827.767,296.65Z" transform="translate(-796.959 -261.667)" fill="#cecece"/>
          <g id="Group_18724" data-name="Group 18724" transform="translate(53.978 26.83)">
            <path id="Path_20028" data-name="Path 20028" d="M859.36,297.21a2.6,2.6,0,0,1-1.175,2.034c-.648.374-1.174.07-1.174-.678a2.6,2.6,0,0,1,1.174-2.035C858.834,296.157,859.36,296.461,859.36,297.21Z" transform="translate(-857.011 -292.008)" fill="#fefeff"/>
            <path id="Path_20029" data-name="Path 20029" d="M863.612,294.755a2.6,2.6,0,0,1-1.175,2.034c-.649.374-1.174.071-1.174-.678a2.6,2.6,0,0,1,1.174-2.034C863.086,293.7,863.612,294.006,863.612,294.755Z" transform="translate(-857.484 -291.735)" fill="#fefeff"/>
            <path id="Path_20030" data-name="Path 20030" d="M867.864,292.3a2.6,2.6,0,0,1-1.175,2.035c-.649.374-1.174.071-1.174-.678a2.6,2.6,0,0,1,1.174-2.034C867.338,291.248,867.864,291.551,867.864,292.3Z" transform="translate(-857.957 -291.462)" fill="#fefeff"/>
          </g>
        </g>
        <g id="Group_18727" data-name="Group 18727" transform="translate(0 16.035)">
          <path id="Path_20031" data-name="Path 20031" d="M863.3,274.388h0V264.355l-22.5-.012-7.777-4.49a7.739,7.739,0,0,0-6.963.289l-7.256,4.189-22.518-.012v10.32a2.017,2.017,0,0,0,1.2,1.866l29.08,16.789a7.739,7.739,0,0,0,6.963-.289l28.08-16.212A2.758,2.758,0,0,0,863.3,274.388Z" transform="translate(-796.28 -245.004)" fill="#aaa9aa"/>
          <path id="Path_20032" data-name="Path 20032" d="M829.8,259.163a8.032,8.032,0,0,0-3.732.979l-7.256,4.189-22.518-.012v10.32a2.017,2.017,0,0,0,1.2,1.866l29.08,16.789a6.293,6.293,0,0,0,3.231.69Z" transform="translate(-796.28 -245.005)" fill="#aaa9aa"/>
          <path id="Path_20033" data-name="Path 20033" d="M798.838,264.965l-2.548,0v10.32a2.017,2.017,0,0,0,1.2,1.865l1.353.78Z" transform="translate(-796.28 -245.65)" fill="#cecece"/>
          <path id="Path_20034" data-name="Path 20034" d="M830.858,296.336a7.933,7.933,0,0,0,5.565-.064V284.555h-5.565Z" transform="translate(-800.125 -247.829)" fill="#cecece"/>
          <path id="Path_20035" data-name="Path 20035" d="M826.565,281.239l-29.08-16.789c-1.785-1.03-1.561-2.83.5-4.02l28.08-16.212a7.739,7.739,0,0,1,6.963-.289l29.08,16.789c1.785,1.031,1.561,2.831-.5,4.021l-28.08,16.212A7.739,7.739,0,0,1,826.565,281.239Z" transform="translate(-796.28 -243.233)" fill="#fefeff"/>
          <path id="Path_20036" data-name="Path 20036" d="M827.767,278.609l-24.37-14.07c-1.5-.863-1.308-2.371.419-3.368l23.531-13.586a6.489,6.489,0,0,1,5.835-.242l24.37,14.07c1.5.864,1.308,2.372-.419,3.369L833.6,278.367A6.484,6.484,0,0,1,827.767,278.609Z" transform="translate(-796.959 -243.626)" fill="#cecece"/>
          <g id="Group_18726" data-name="Group 18726" transform="translate(53.978 26.83)">
            <path id="Path_20037" data-name="Path 20037" d="M859.36,279.169a2.6,2.6,0,0,1-1.175,2.034c-.648.374-1.174.07-1.174-.678a2.6,2.6,0,0,1,1.174-2.034C858.834,278.116,859.36,278.42,859.36,279.169Z" transform="translate(-857.011 -273.967)" fill="#fefeff"/>
            <path id="Path_20038" data-name="Path 20038" d="M863.612,276.714a2.6,2.6,0,0,1-1.175,2.034c-.649.374-1.174.071-1.174-.678a2.6,2.6,0,0,1,1.174-2.034C863.086,275.662,863.612,275.965,863.612,276.714Z" transform="translate(-857.484 -273.694)" fill="#fefeff"/>
            <path id="Path_20039" data-name="Path 20039" d="M867.864,274.259a2.6,2.6,0,0,1-1.175,2.034c-.649.374-1.174.071-1.174-.678a2.6,2.6,0,0,1,1.174-2.034C867.338,273.207,867.864,273.51,867.864,274.259Z" transform="translate(-857.957 -273.421)" fill="#fefeff"/>
          </g>
        </g>
        <g id="Group_18730" data-name="Group 18730">
          <path id="Path_20040" data-name="Path 20040" d="M863.3,256.348h0V246.314l-22.5-.012-7.777-4.49a7.739,7.739,0,0,0-6.963.289l-7.256,4.189-22.518-.012V256.6a2.017,2.017,0,0,0,1.2,1.866l29.08,16.789a7.739,7.739,0,0,0,6.963-.289l28.08-16.211A2.758,2.758,0,0,0,863.3,256.348Z" transform="translate(-796.28 -226.963)" fill="#aaa9aa"/>
          <path id="Path_20041" data-name="Path 20041" d="M829.8,241.122a8.031,8.031,0,0,0-3.732.979l-7.256,4.189-22.518-.012V256.6a2.017,2.017,0,0,0,1.2,1.866l29.08,16.789a6.3,6.3,0,0,0,3.231.691Z" transform="translate(-796.28 -226.964)" fill="#aaa9aa"/>
          <path id="Path_20042" data-name="Path 20042" d="M798.838,246.924l-2.548,0v10.32a2.017,2.017,0,0,0,1.2,1.866l1.353.78Z" transform="translate(-796.28 -227.609)" fill="#cecece"/>
          <path id="Path_20043" data-name="Path 20043" d="M830.858,278.295a7.934,7.934,0,0,0,5.565-.064V266.514h-5.565Z" transform="translate(-800.125 -229.788)" fill="#cecece"/>
          <path id="Path_20044" data-name="Path 20044" d="M826.565,263.2l-29.08-16.789c-1.785-1.03-1.561-2.83.5-4.02l28.08-16.211a7.739,7.739,0,0,1,6.963-.289l29.08,16.789c1.785,1.031,1.561,2.831-.5,4.021l-28.08,16.212A7.739,7.739,0,0,1,826.565,263.2Z" transform="translate(-796.28 -225.193)" fill="#0f57fb"/>
          <path id="Path_20045" data-name="Path 20045" d="M861.607,247.01l-28.079,16.211a7.739,7.739,0,0,1-6.963.289l-29.08-16.79a2.674,2.674,0,0,1-.891-.79,1.87,1.87,0,0,0,.891,2.765l29.08,16.789a7.739,7.739,0,0,0,6.963-.288l28.079-16.212c1.6-.925,2.088-2.217,1.39-3.231A3.889,3.889,0,0,1,861.607,247.01Z" transform="translate(-796.28 -227.479)" fill="#fff"/>
          <g id="Group_18728" data-name="Group 18728" transform="translate(53.978 26.83)">
            <path id="Path_20046" data-name="Path 20046" d="M859.36,261.128a2.6,2.6,0,0,1-1.175,2.034c-.648.374-1.174.07-1.174-.678a2.6,2.6,0,0,1,1.174-2.034C858.834,260.075,859.36,260.379,859.36,261.128Z" transform="translate(-857.011 -255.926)" fill="#fefeff"/>
            <path id="Path_20047" data-name="Path 20047" d="M863.612,258.673a2.6,2.6,0,0,1-1.175,2.034c-.649.374-1.174.071-1.174-.678a2.6,2.6,0,0,1,1.174-2.034C863.086,257.621,863.612,257.924,863.612,258.673Z" transform="translate(-857.484 -255.653)" fill="#fefeff"/>
            <path id="Path_20048" data-name="Path 20048" d="M867.864,256.218a2.6,2.6,0,0,1-1.175,2.034c-.649.374-1.174.071-1.174-.678a2.6,2.6,0,0,1,1.174-2.034C867.338,255.166,867.864,255.469,867.864,256.218Z" transform="translate(-857.957 -255.38)" fill="#fefeff"/>
          </g>
          <g id="Group_18729" data-name="Group 18729" transform="translate(17.833 9.812)">
            <path id="Path_20049" data-name="Path 20049" d="M830.515,254.017l-13.607-7.857c-.836-.482-.731-1.324.234-1.882l13.14-7.586a3.624,3.624,0,0,1,3.258-.135l13.607,7.857c.836.482.731,1.324-.234,1.881l-13.14,7.587A3.624,3.624,0,0,1,830.515,254.017Z" transform="translate(-816.343 -236.232)" fill="#cecece"/>
            <path id="Path_20050" data-name="Path 20050" d="M833.509,248.532l-1.882-1.087c-.116-.067-.1-.183.032-.26l1.818-1.049a.5.5,0,0,1,.451-.019l1.882,1.087c.116.067.1.183-.032.26l-1.818,1.05A.5.5,0,0,1,833.509,248.532Z" transform="translate(-818.034 -237.326)" fill="#fefeff"/>
            <path id="Path_20051" data-name="Path 20051" d="M816.907,246.16l.038.022a2.091,2.091,0,0,1,.2-.134l13.139-7.587a3.626,3.626,0,0,1,3.259-.135l13.569,7.835c.77-.551.811-1.3.038-1.746l-13.607-7.857a3.626,3.626,0,0,0-3.259.135l-13.139,7.586C816.177,244.836,816.072,245.678,816.907,246.16Z" transform="translate(-816.343 -236.232)" fill="#aaa9aa"/>
          </g>
        </g>
      </g>
      <path id="Path_20052" data-name="Path 20052" d="M783.513,65.821c0,.5-.354.708-.79.457a1.749,1.749,0,0,1-.79-1.37c0-.5.354-.708.79-.456A1.746,1.746,0,0,1,783.513,65.821Z" transform="translate(-653.864 6.885)" fill="#fefeff"/>
      <path id="Path_20053" data-name="Path 20053" d="M791.347,70.571c0,.5-.355.708-.791.457a1.749,1.749,0,0,1-.79-1.37c0-.5.354-.708.79-.456A1.747,1.747,0,0,1,791.347,70.571Z" transform="translate(-654.774 6.34)" fill="#fefeff"/>
      <path id="Path_20054" data-name="Path 20054" d="M799.18,75.321c0,.5-.354.708-.79.457a1.748,1.748,0,0,1-.791-1.37c0-.5.354-.708.791-.456A1.746,1.746,0,0,1,799.18,75.321Z" transform="translate(-655.684 5.794)" fill="#fefeff"/>
      <path id="Path_20055" data-name="Path 20055" d="M807.013,80.071c0,.5-.354.708-.79.457a1.749,1.749,0,0,1-.79-1.37c0-.5.354-.708.79-.456A1.746,1.746,0,0,1,807.013,80.071Z" transform="translate(-656.594 5.248)" fill="#fefeff"/>
    </g>
    <path id="Path_20056" data-name="Path 20056" d="M788.993,75.4a.711.711,0,1,1-.711-.711A.711.711,0,0,1,788.993,75.4Z" transform="translate(-17.483 -10.437)" fill="#fefeff"/>
    <path id="Path_20057" data-name="Path 20057" d="M796.3,79.77a.711.711,0,1,1-.711-.711A.711.711,0,0,1,796.3,79.77Z" transform="translate(-18.331 -10.94)" fill="#fefeff"/>
    <circle id="Ellipse_152" data-name="Ellipse 152" cx="0.711" cy="0.711" r="0.711" transform="translate(782.999 71.991)" fill="#fefeff"/>
    <path id="Path_20058" data-name="Path 20058" d="M810.9,88.35a.711.711,0,1,1-.711-.711A.711.711,0,0,1,810.9,88.35Z" transform="translate(-20.027 -11.926)" fill="#fefeff"/>
  </g>
</svg>
